  0
SECTION
  2
HEADER
  9
$ANGBASE
  50
0.0
  9
$ANGDIR
  70
1
  9
$MEASUREMENT
  70
0
  0
ENDSEC
  0
SECTION
  2
TABLES
  0
TABLE
  2
LTYPE
  70
4
  0
LTYPE
  5
40F
  2
CONTINUOUS
  70
0
  3
Solid line
  72
65
  73
0
  40
0.0
  0
LTYPE
  5
410
  2
DASHDOT
 70
0
  3
Dash Dot ____ _ ____ _
 72
65
 73
4
 40
2.0
 49
1.25
 49
-0.25
 49
0.25
 49
-0.25
  0
LTYPE
  5
411
  2
DASHED
 70
0
  3
Dashed __ __ __ __ __
 72
65
 73
2
 40
0.75
 49
0.5
 49
-0.25
  0
LTYPE
  5
43B
  2
DOTTED
 70
0
  3
Dotted .  .  .  .
 72
65
 73
2
 40
0.2
 49
0.0
 49
-0.2
  0
ENDTAB
  0
TABLE
  2
STYLE
  70
4
  0
STYLE
  2
KICAD
  70
0
  40
0
  41
1
  42
1
  50
0
  71
0
  3
isocp.shx
  0
STYLE
  2
KICADB
  70
0
  40
0
  41
1
  42
1
  50
0
  71
0
  3
isocp.shx
  0
STYLE
  2
KICADI
  70
0
  40
0
  41
1
  42
1
  50
15
  71
0
  3
isocp.shx
  0
STYLE
  2
KICADBI
  70
0
  40
0
  41
1
  42
1
  50
15
  71
0
  3
isocp.shx
  0
ENDTAB
  0
TABLE
  2
LAYER
  70
1
  0
LAYER
  2
BLACK
  70
0
  62
7
  6
CONTINUOUS
  0
ENDTAB
  0
ENDSEC
  0
SECTION
  2
ENTITIES
0
LINE
8
BLACK
6
CONTINUOUS
10
5.20413
20
-4.24783
11
5.19823
21
-4.24783
0
LINE
8
BLACK
6
CONTINUOUS
10
5.19823
20
-4.24783
11
5.19823
21
-4.23012
0
LINE
8
BLACK
6
CONTINUOUS
10
5.19823
20
-4.23012
11
5.20413
21
-4.23012
0
LINE
8
BLACK
6
CONTINUOUS
10
5.20413
20
-4.23012
11
5.20413
21
-4.24783
0
LINE
8
BLACK
6
CONTINUOUS
10
5.19232
20
-4.24783
11
5.18642
21
-4.24783
0
LINE
8
BLACK
6
CONTINUOUS
10
5.18642
20
-4.24783
11
5.18642
21
-4.23012
0
LINE
8
BLACK
6
CONTINUOUS
10
5.18642
20
-4.23012
11
5.19232
21
-4.23012
0
LINE
8
BLACK
6
CONTINUOUS
10
5.19232
20
-4.23012
11
5.19232
21
-4.24783
0
LINE
8
BLACK
6
CONTINUOUS
10
5.08602
20
-4.24783
11
5.08012
21
-4.24783
0
LINE
8
BLACK
6
CONTINUOUS
10
5.08012
20
-4.24783
11
5.08012
21
-4.23012
0
LINE
8
BLACK
6
CONTINUOUS
10
5.08012
20
-4.23012
11
5.08602
21
-4.23012
0
LINE
8
BLACK
6
CONTINUOUS
10
5.08602
20
-4.23012
11
5.08602
21
-4.24783
0
LINE
8
BLACK
6
CONTINUOUS
10
5.18051
20
-4.24783
11
5.17461
21
-4.24783
0
LINE
8
BLACK
6
CONTINUOUS
10
5.17461
20
-4.24783
11
5.17461
21
-4.23012
0
LINE
8
BLACK
6
CONTINUOUS
10
5.17461
20
-4.23012
11
5.18051
21
-4.23012
0
LINE
8
BLACK
6
CONTINUOUS
10
5.18051
20
-4.23012
11
5.18051
21
-4.24783
0
LINE
8
BLACK
6
CONTINUOUS
10
5.1687
20
-4.24783
11
5.1628
21
-4.24783
0
LINE
8
BLACK
6
CONTINUOUS
10
5.1628
20
-4.24783
11
5.1628
21
-4.23012
0
LINE
8
BLACK
6
CONTINUOUS
10
5.1628
20
-4.23012
11
5.1687
21
-4.23012
0
LINE
8
BLACK
6
CONTINUOUS
10
5.1687
20
-4.23012
11
5.1687
21
-4.24783
0
LINE
8
BLACK
6
CONTINUOUS
10
5.15689
20
-4.24783
11
5.15098
21
-4.24783
0
LINE
8
BLACK
6
CONTINUOUS
10
5.15098
20
-4.24783
11
5.15098
21
-4.23012
0
LINE
8
BLACK
6
CONTINUOUS
10
5.15098
20
-4.23012
11
5.15689
21
-4.23012
0
LINE
8
BLACK
6
CONTINUOUS
10
5.15689
20
-4.23012
11
5.15689
21
-4.24783
0
LINE
8
BLACK
6
CONTINUOUS
10
5.14508
20
-4.24783
11
5.13917
21
-4.24783
0
LINE
8
BLACK
6
CONTINUOUS
10
5.13917
20
-4.24783
11
5.13917
21
-4.23012
0
LINE
8
BLACK
6
CONTINUOUS
10
5.13917
20
-4.23012
11
5.14508
21
-4.23012
0
LINE
8
BLACK
6
CONTINUOUS
10
5.14508
20
-4.23012
11
5.14508
21
-4.24783
0
LINE
8
BLACK
6
CONTINUOUS
10
5.13327
20
-4.24783
11
5.12736
21
-4.24783
0
LINE
8
BLACK
6
CONTINUOUS
10
5.12736
20
-4.24783
11
5.12736
21
-4.23012
0
LINE
8
BLACK
6
CONTINUOUS
10
5.12736
20
-4.23012
11
5.13327
21
-4.23012
0
LINE
8
BLACK
6
CONTINUOUS
10
5.13327
20
-4.23012
11
5.13327
21
-4.24783
0
LINE
8
BLACK
6
CONTINUOUS
10
5.12146
20
-4.24783
11
5.11555
21
-4.24783
0
LINE
8
BLACK
6
CONTINUOUS
10
5.11555
20
-4.24783
11
5.11555
21
-4.23012
0
LINE
8
BLACK
6
CONTINUOUS
10
5.11555
20
-4.23012
11
5.12146
21
-4.23012
0
LINE
8
BLACK
6
CONTINUOUS
10
5.12146
20
-4.23012
11
5.12146
21
-4.24783
0
LINE
8
BLACK
6
CONTINUOUS
10
5.10965
20
-4.24783
11
5.10374
21
-4.24783
0
LINE
8
BLACK
6
CONTINUOUS
10
5.10374
20
-4.24783
11
5.10374
21
-4.23012
0
LINE
8
BLACK
6
CONTINUOUS
10
5.10374
20
-4.23012
11
5.10965
21
-4.23012
0
LINE
8
BLACK
6
CONTINUOUS
10
5.10965
20
-4.23012
11
5.10965
21
-4.24783
0
LINE
8
BLACK
6
CONTINUOUS
10
5.09783
20
-4.24783
11
5.09193
21
-4.24783
0
LINE
8
BLACK
6
CONTINUOUS
10
5.09193
20
-4.24783
11
5.09193
21
-4.23012
0
LINE
8
BLACK
6
CONTINUOUS
10
5.09193
20
-4.23012
11
5.09783
21
-4.23012
0
LINE
8
BLACK
6
CONTINUOUS
10
5.09783
20
-4.23012
11
5.09783
21
-4.24783
0
LINE
8
BLACK
6
CONTINUOUS
10
5.2813
20
-4.20098
11
5.26358
21
-4.20098
0
LINE
8
BLACK
6
CONTINUOUS
10
5.26358
20
-4.20098
11
5.26358
21
-4.19508
0
LINE
8
BLACK
6
CONTINUOUS
10
5.26358
20
-4.19508
11
5.2813
21
-4.19508
0
LINE
8
BLACK
6
CONTINUOUS
10
5.2813
20
-4.19508
11
5.2813
21
-4.20098
0
LINE
8
BLACK
6
CONTINUOUS
10
5.24449
20
-4.20079
11
5.04764
21
-4.20079
0
LINE
8
BLACK
6
CONTINUOUS
10
5.04764
20
-4.20079
11
5.04764
21
-3.9252
0
LINE
8
BLACK
6
CONTINUOUS
10
5.04764
20
-3.9252
11
5.24449
21
-3.9252
0
LINE
8
BLACK
6
CONTINUOUS
10
5.24449
20
-3.9252
11
5.24449
21
-4.20079
0
LINE
8
BLACK
6
CONTINUOUS
10
5.2813
20
-4.18917
11
5.26358
21
-4.18917
0
LINE
8
BLACK
6
CONTINUOUS
10
5.26358
20
-4.18917
11
5.26358
21
-4.18327
0
LINE
8
BLACK
6
CONTINUOUS
10
5.26358
20
-4.18327
11
5.2813
21
-4.18327
0
LINE
8
BLACK
6
CONTINUOUS
10
5.2813
20
-4.18327
11
5.2813
21
-4.18917
0
LINE
8
BLACK
6
CONTINUOUS
10
5.2813
20
-4.17736
11
5.26358
21
-4.17736
0
LINE
8
BLACK
6
CONTINUOUS
10
5.26358
20
-4.17736
11
5.26358
21
-4.17146
0
LINE
8
BLACK
6
CONTINUOUS
10
5.26358
20
-4.17146
11
5.2813
21
-4.17146
0
LINE
8
BLACK
6
CONTINUOUS
10
5.2813
20
-4.17146
11
5.2813
21
-4.17736
0
LINE
8
BLACK
6
CONTINUOUS
10
5.2813
20
-4.16555
11
5.26358
21
-4.16555
0
LINE
8
BLACK
6
CONTINUOUS
10
5.26358
20
-4.16555
11
5.26358
21
-4.15965
0
LINE
8
BLACK
6
CONTINUOUS
10
5.26358
20
-4.15965
11
5.2813
21
-4.15965
0
LINE
8
BLACK
6
CONTINUOUS
10
5.2813
20
-4.15965
11
5.2813
21
-4.16555
0
LINE
8
BLACK
6
CONTINUOUS
10
5.2813
20
-4.15374
11
5.26358
21
-4.15374
0
LINE
8
BLACK
6
CONTINUOUS
10
5.26358
20
-4.15374
11
5.26358
21
-4.14783
0
LINE
8
BLACK
6
CONTINUOUS
10
5.26358
20
-4.14783
11
5.2813
21
-4.14783
0
LINE
8
BLACK
6
CONTINUOUS
10
5.2813
20
-4.14783
11
5.2813
21
-4.15374
0
LINE
8
BLACK
6
CONTINUOUS
10
5.2813
20
-4.14193
11
5.26358
21
-4.14193
0
LINE
8
BLACK
6
CONTINUOUS
10
5.26358
20
-4.14193
11
5.26358
21
-4.13602
0
LINE
8
BLACK
6
CONTINUOUS
10
5.26358
20
-4.13602
11
5.2813
21
-4.13602
0
LINE
8
BLACK
6
CONTINUOUS
10
5.2813
20
-4.13602
11
5.2813
21
-4.14193
0
LINE
8
BLACK
6
CONTINUOUS
10
5.2813
20
-4.13012
11
5.26358
21
-4.13012
0
LINE
8
BLACK
6
CONTINUOUS
10
5.26358
20
-4.13012
11
5.26358
21
-4.12421
0
LINE
8
BLACK
6
CONTINUOUS
10
5.26358
20
-4.12421
11
5.2813
21
-4.12421
0
LINE
8
BLACK
6
CONTINUOUS
10
5.2813
20
-4.12421
11
5.2813
21
-4.13012
0
LINE
8
BLACK
6
CONTINUOUS
10
5.2813
20
-4.11831
11
5.26358
21
-4.11831
0
LINE
8
BLACK
6
CONTINUOUS
10
5.26358
20
-4.11831
11
5.26358
21
-4.1124
0
LINE
8
BLACK
6
CONTINUOUS
10
5.26358
20
-4.1124
11
5.2813
21
-4.1124
0
LINE
8
BLACK
6
CONTINUOUS
10
5.2813
20
-4.1124
11
5.2813
21
-4.11831
0
LINE
8
BLACK
6
CONTINUOUS
10
5.2813
20
-4.1065
11
5.26358
21
-4.1065
0
LINE
8
BLACK
6
CONTINUOUS
10
5.26358
20
-4.1065
11
5.26358
21
-4.10059
0
LINE
8
BLACK
6
CONTINUOUS
10
5.26358
20
-4.10059
11
5.2813
21
-4.10059
0
LINE
8
BLACK
6
CONTINUOUS
10
5.2813
20
-4.10059
11
5.2813
21
-4.1065
0
LINE
8
BLACK
6
CONTINUOUS
10
5.2813
20
-4.09469
11
5.26358
21
-4.09469
0
LINE
8
BLACK
6
CONTINUOUS
10
5.26358
20
-4.09469
11
5.26358
21
-4.08878
0
LINE
8
BLACK
6
CONTINUOUS
10
5.26358
20
-4.08878
11
5.2813
21
-4.08878
0
LINE
8
BLACK
6
CONTINUOUS
10
5.2813
20
-4.08878
11
5.2813
21
-4.09469
0
LINE
8
BLACK
6
CONTINUOUS
10
5.2813
20
-4.08287
11
5.26358
21
-4.08287
0
LINE
8
BLACK
6
CONTINUOUS
10
5.26358
20
-4.08287
11
5.26358
21
-4.07697
0
LINE
8
BLACK
6
CONTINUOUS
10
5.26358
20
-4.07697
11
5.2813
21
-4.07697
0
LINE
8
BLACK
6
CONTINUOUS
10
5.2813
20
-4.07697
11
5.2813
21
-4.08287
0
LINE
8
BLACK
6
CONTINUOUS
10
5.2813
20
-4.07106
11
5.26358
21
-4.07106
0
LINE
8
BLACK
6
CONTINUOUS
10
5.26358
20
-4.07106
11
5.26358
21
-4.06516
0
LINE
8
BLACK
6
CONTINUOUS
10
5.26358
20
-4.06516
11
5.2813
21
-4.06516
0
LINE
8
BLACK
6
CONTINUOUS
10
5.2813
20
-4.06516
11
5.2813
21
-4.07106
0
LINE
8
BLACK
6
CONTINUOUS
10
5.2813
20
-4.05925
11
5.26358
21
-4.05925
0
LINE
8
BLACK
6
CONTINUOUS
10
5.26358
20
-4.05925
11
5.26358
21
-4.05335
0
LINE
8
BLACK
6
CONTINUOUS
10
5.26358
20
-4.05335
11
5.2813
21
-4.05335
0
LINE
8
BLACK
6
CONTINUOUS
10
5.2813
20
-4.05335
11
5.2813
21
-4.05925
0
LINE
8
BLACK
6
CONTINUOUS
10
5.2813
20
-4.04744
11
5.26358
21
-4.04744
0
LINE
8
BLACK
6
CONTINUOUS
10
5.26358
20
-4.04744
11
5.26358
21
-4.04154
0
LINE
8
BLACK
6
CONTINUOUS
10
5.26358
20
-4.04154
11
5.2813
21
-4.04154
0
LINE
8
BLACK
6
CONTINUOUS
10
5.2813
20
-4.04154
11
5.2813
21
-4.04744
0
LINE
8
BLACK
6
CONTINUOUS
10
5.2813
20
-4.03563
11
5.26358
21
-4.03563
0
LINE
8
BLACK
6
CONTINUOUS
10
5.26358
20
-4.03563
11
5.26358
21
-4.02972
0
LINE
8
BLACK
6
CONTINUOUS
10
5.26358
20
-4.02972
11
5.2813
21
-4.02972
0
LINE
8
BLACK
6
CONTINUOUS
10
5.2813
20
-4.02972
11
5.2813
21
-4.03563
0
LINE
8
BLACK
6
CONTINUOUS
10
5.2813
20
-4.02382
11
5.26358
21
-4.02382
0
LINE
8
BLACK
6
CONTINUOUS
10
5.26358
20
-4.02382
11
5.26358
21
-4.01791
0
LINE
8
BLACK
6
CONTINUOUS
10
5.26358
20
-4.01791
11
5.2813
21
-4.01791
0
LINE
8
BLACK
6
CONTINUOUS
10
5.2813
20
-4.01791
11
5.2813
21
-4.02382
0
LINE
8
BLACK
6
CONTINUOUS
10
5.2813
20
-4.01201
11
5.26358
21
-4.01201
0
LINE
8
BLACK
6
CONTINUOUS
10
5.26358
20
-4.01201
11
5.26358
21
-4.0061
0
LINE
8
BLACK
6
CONTINUOUS
10
5.26358
20
-4.0061
11
5.2813
21
-4.0061
0
LINE
8
BLACK
6
CONTINUOUS
10
5.2813
20
-4.0061
11
5.2813
21
-4.01201
0
LINE
8
BLACK
6
CONTINUOUS
10
5.2813
20
-4.0002
11
5.26358
21
-4.0002
0
LINE
8
BLACK
6
CONTINUOUS
10
5.26358
20
-4.0002
11
5.26358
21
-3.99429
0
LINE
8
BLACK
6
CONTINUOUS
10
5.26358
20
-3.99429
11
5.2813
21
-3.99429
0
LINE
8
BLACK
6
CONTINUOUS
10
5.2813
20
-3.99429
11
5.2813
21
-4.0002
0
LINE
8
BLACK
6
CONTINUOUS
10
5.2813
20
-3.98839
11
5.26358
21
-3.98839
0
LINE
8
BLACK
6
CONTINUOUS
10
5.26358
20
-3.98839
11
5.26358
21
-3.98248
0
LINE
8
BLACK
6
CONTINUOUS
10
5.26358
20
-3.98248
11
5.2813
21
-3.98248
0
LINE
8
BLACK
6
CONTINUOUS
10
5.2813
20
-3.98248
11
5.2813
21
-3.98839
0
LINE
8
BLACK
6
CONTINUOUS
10
5.2813
20
-3.97657
11
5.26358
21
-3.97657
0
LINE
8
BLACK
6
CONTINUOUS
10
5.26358
20
-3.97657
11
5.26358
21
-3.97067
0
LINE
8
BLACK
6
CONTINUOUS
10
5.26358
20
-3.97067
11
5.2813
21
-3.97067
0
LINE
8
BLACK
6
CONTINUOUS
10
5.2813
20
-3.97067
11
5.2813
21
-3.97657
0
LINE
8
BLACK
6
CONTINUOUS
10
5.2813
20
-3.96476
11
5.26358
21
-3.96476
0
LINE
8
BLACK
6
CONTINUOUS
10
5.26358
20
-3.96476
11
5.26358
21
-3.95886
0
LINE
8
BLACK
6
CONTINUOUS
10
5.26358
20
-3.95886
11
5.2813
21
-3.95886
0
LINE
8
BLACK
6
CONTINUOUS
10
5.2813
20
-3.95886
11
5.2813
21
-3.96476
0
LINE
8
BLACK
6
CONTINUOUS
10
5.2813
20
-3.95295
11
5.26358
21
-3.95295
0
LINE
8
BLACK
6
CONTINUOUS
10
5.26358
20
-3.95295
11
5.26358
21
-3.94705
0
LINE
8
BLACK
6
CONTINUOUS
10
5.26358
20
-3.94705
11
5.2813
21
-3.94705
0
LINE
8
BLACK
6
CONTINUOUS
10
5.2813
20
-3.94705
11
5.2813
21
-3.95295
0
LINE
8
BLACK
6
CONTINUOUS
10
5.2813
20
-3.94114
11
5.26358
21
-3.94114
0
LINE
8
BLACK
6
CONTINUOUS
10
5.26358
20
-3.94114
11
5.26358
21
-3.93524
0
LINE
8
BLACK
6
CONTINUOUS
10
5.26358
20
-3.93524
11
5.2813
21
-3.93524
0
LINE
8
BLACK
6
CONTINUOUS
10
5.2813
20
-3.93524
11
5.2813
21
-3.94114
0
LINE
8
BLACK
6
CONTINUOUS
10
5.2813
20
-3.92933
11
5.26358
21
-3.92933
0
LINE
8
BLACK
6
CONTINUOUS
10
5.26358
20
-3.92933
11
5.26358
21
-3.92343
0
LINE
8
BLACK
6
CONTINUOUS
10
5.26358
20
-3.92343
11
5.2813
21
-3.92343
0
LINE
8
BLACK
6
CONTINUOUS
10
5.2813
20
-3.92343
11
5.2813
21
-3.92933
0
LINE
8
BLACK
6
CONTINUOUS
10
5.0624
20
-3.89547
11
5.0565
21
-3.89547
0
LINE
8
BLACK
6
CONTINUOUS
10
5.0565
20
-3.89547
11
5.0565
21
-3.87776
0
LINE
8
BLACK
6
CONTINUOUS
10
5.0565
20
-3.87776
11
5.0624
21
-3.87776
0
LINE
8
BLACK
6
CONTINUOUS
10
5.0624
20
-3.87776
11
5.0624
21
-3.89547
0
LINE
8
BLACK
6
CONTINUOUS
10
5.21594
20
-3.89547
11
5.21004
21
-3.89547
0
LINE
8
BLACK
6
CONTINUOUS
10
5.21004
20
-3.89547
11
5.21004
21
-3.87776
0
LINE
8
BLACK
6
CONTINUOUS
10
5.21004
20
-3.87776
11
5.21594
21
-3.87776
0
LINE
8
BLACK
6
CONTINUOUS
10
5.21594
20
-3.87776
11
5.21594
21
-3.89547
0
LINE
8
BLACK
6
CONTINUOUS
10
5.20413
20
-3.89547
11
5.19823
21
-3.89547
0
LINE
8
BLACK
6
CONTINUOUS
10
5.19823
20
-3.89547
11
5.19823
21
-3.87776
0
LINE
8
BLACK
6
CONTINUOUS
10
5.19823
20
-3.87776
11
5.20413
21
-3.87776
0
LINE
8
BLACK
6
CONTINUOUS
10
5.20413
20
-3.87776
11
5.20413
21
-3.89547
0
LINE
8
BLACK
6
CONTINUOUS
10
5.19232
20
-3.89547
11
5.18642
21
-3.89547
0
LINE
8
BLACK
6
CONTINUOUS
10
5.18642
20
-3.89547
11
5.18642
21
-3.87776
0
LINE
8
BLACK
6
CONTINUOUS
10
5.18642
20
-3.87776
11
5.19232
21
-3.87776
0
LINE
8
BLACK
6
CONTINUOUS
10
5.19232
20
-3.87776
11
5.19232
21
-3.89547
0
LINE
8
BLACK
6
CONTINUOUS
10
5.18051
20
-3.89547
11
5.17461
21
-3.89547
0
LINE
8
BLACK
6
CONTINUOUS
10
5.17461
20
-3.89547
11
5.17461
21
-3.87776
0
LINE
8
BLACK
6
CONTINUOUS
10
5.17461
20
-3.87776
11
5.18051
21
-3.87776
0
LINE
8
BLACK
6
CONTINUOUS
10
5.18051
20
-3.87776
11
5.18051
21
-3.89547
0
LINE
8
BLACK
6
CONTINUOUS
10
5.1687
20
-3.89547
11
5.1628
21
-3.89547
0
LINE
8
BLACK
6
CONTINUOUS
10
5.1628
20
-3.89547
11
5.1628
21
-3.87776
0
LINE
8
BLACK
6
CONTINUOUS
10
5.1628
20
-3.87776
11
5.1687
21
-3.87776
0
LINE
8
BLACK
6
CONTINUOUS
10
5.1687
20
-3.87776
11
5.1687
21
-3.89547
0
LINE
8
BLACK
6
CONTINUOUS
10
5.15689
20
-3.89547
11
5.15098
21
-3.89547
0
LINE
8
BLACK
6
CONTINUOUS
10
5.15098
20
-3.89547
11
5.15098
21
-3.87776
0
LINE
8
BLACK
6
CONTINUOUS
10
5.15098
20
-3.87776
11
5.15689
21
-3.87776
0
LINE
8
BLACK
6
CONTINUOUS
10
5.15689
20
-3.87776
11
5.15689
21
-3.89547
0
LINE
8
BLACK
6
CONTINUOUS
10
5.14508
20
-3.89547
11
5.13917
21
-3.89547
0
LINE
8
BLACK
6
CONTINUOUS
10
5.13917
20
-3.89547
11
5.13917
21
-3.87776
0
LINE
8
BLACK
6
CONTINUOUS
10
5.13917
20
-3.87776
11
5.14508
21
-3.87776
0
LINE
8
BLACK
6
CONTINUOUS
10
5.14508
20
-3.87776
11
5.14508
21
-3.89547
0
LINE
8
BLACK
6
CONTINUOUS
10
5.13327
20
-3.89547
11
5.12736
21
-3.89547
0
LINE
8
BLACK
6
CONTINUOUS
10
5.12736
20
-3.89547
11
5.12736
21
-3.87776
0
LINE
8
BLACK
6
CONTINUOUS
10
5.12736
20
-3.87776
11
5.13327
21
-3.87776
0
LINE
8
BLACK
6
CONTINUOUS
10
5.13327
20
-3.87776
11
5.13327
21
-3.89547
0
LINE
8
BLACK
6
CONTINUOUS
10
5.12146
20
-3.89547
11
5.11555
21
-3.89547
0
LINE
8
BLACK
6
CONTINUOUS
10
5.11555
20
-3.89547
11
5.11555
21
-3.87776
0
LINE
8
BLACK
6
CONTINUOUS
10
5.11555
20
-3.87776
11
5.12146
21
-3.87776
0
LINE
8
BLACK
6
CONTINUOUS
10
5.12146
20
-3.87776
11
5.12146
21
-3.89547
0
LINE
8
BLACK
6
CONTINUOUS
10
5.10965
20
-3.89547
11
5.10374
21
-3.89547
0
LINE
8
BLACK
6
CONTINUOUS
10
5.10374
20
-3.89547
11
5.10374
21
-3.87776
0
LINE
8
BLACK
6
CONTINUOUS
10
5.10374
20
-3.87776
11
5.10965
21
-3.87776
0
LINE
8
BLACK
6
CONTINUOUS
10
5.10965
20
-3.87776
11
5.10965
21
-3.89547
0
LINE
8
BLACK
6
CONTINUOUS
10
5.09783
20
-3.89547
11
5.09193
21
-3.89547
0
LINE
8
BLACK
6
CONTINUOUS
10
5.09193
20
-3.89547
11
5.09193
21
-3.87776
0
LINE
8
BLACK
6
CONTINUOUS
10
5.09193
20
-3.87776
11
5.09783
21
-3.87776
0
LINE
8
BLACK
6
CONTINUOUS
10
5.09783
20
-3.87776
11
5.09783
21
-3.89547
0
LINE
8
BLACK
6
CONTINUOUS
10
5.08602
20
-3.89547
11
5.08012
21
-3.89547
0
LINE
8
BLACK
6
CONTINUOUS
10
5.08012
20
-3.89547
11
5.08012
21
-3.87776
0
LINE
8
BLACK
6
CONTINUOUS
10
5.08012
20
-3.87776
11
5.08602
21
-3.87776
0
LINE
8
BLACK
6
CONTINUOUS
10
5.08602
20
-3.87776
11
5.08602
21
-3.89547
0
LINE
8
BLACK
6
CONTINUOUS
10
5.07421
20
-3.89547
11
5.06831
21
-3.89547
0
LINE
8
BLACK
6
CONTINUOUS
10
5.06831
20
-3.89547
11
5.06831
21
-3.87776
0
LINE
8
BLACK
6
CONTINUOUS
10
5.06831
20
-3.87776
11
5.07421
21
-3.87776
0
LINE
8
BLACK
6
CONTINUOUS
10
5.07421
20
-3.87776
11
5.07421
21
-3.89547
  0
ENDSEC
  0
EOF
