  0
SECTION
  2
HEADER
  9
$ANGBASE
  50
0.0
  9
$ANGDIR
  70
1
  9
$MEASUREMENT
  70
0
  0
ENDSEC
  0
SECTION
  2
TABLES
  0
TABLE
  2
LTYPE
  70
4
  0
LTYPE
  5
40F
  2
CONTINUOUS
  70
0
  3
Solid line
  72
65
  73
0
  40
0.0
  0
LTYPE
  5
410
  2
DASHDOT
 70
0
  3
Dash Dot ____ _ ____ _
 72
65
 73
4
 40
2.0
 49
1.25
 49
-0.25
 49
0.25
 49
-0.25
  0
LTYPE
  5
411
  2
DASHED
 70
0
  3
Dashed __ __ __ __ __
 72
65
 73
2
 40
0.75
 49
0.5
 49
-0.25
  0
LTYPE
  5
43B
  2
DOTTED
 70
0
  3
Dotted .  .  .  .
 72
65
 73
2
 40
0.2
 49
0.0
 49
-0.2
  0
ENDTAB
  0
TABLE
  2
STYLE
  70
4
  0
STYLE
  2
KICAD
  70
0
  40
0
  41
1
  42
1
  50
0
  71
0
  3
isocp.shx
  0
STYLE
  2
KICADB
  70
0
  40
0
  41
1
  42
1
  50
0
  71
0
  3
isocp.shx
  0
STYLE
  2
KICADI
  70
0
  40
0
  41
1
  42
1
  50
15
  71
0
  3
isocp.shx
  0
STYLE
  2
KICADBI
  70
0
  40
0
  41
1
  42
1
  50
15
  71
0
  3
isocp.shx
  0
ENDTAB
  0
TABLE
  2
LAYER
  70
1
  0
LAYER
  2
BLACK
  70
0
  62
7
  6
CONTINUOUS
  0
ENDTAB
  0
ENDSEC
  0
SECTION
  2
ENTITIES
0
LINE
8
BLACK
6
CONTINUOUS
10
5.05873
20
-4.15633
11
5.05918
21
-4.15647
0
LINE
8
BLACK
6
CONTINUOUS
10
5.05918
20
-4.15647
11
5.05959
21
-4.15669
0
LINE
8
BLACK
6
CONTINUOUS
10
5.05959
20
-4.15669
11
5.05995
21
-4.15698
0
LINE
8
BLACK
6
CONTINUOUS
10
5.05995
20
-4.15698
11
5.06024
21
-4.15734
0
LINE
8
BLACK
6
CONTINUOUS
10
5.06024
20
-4.15734
11
5.06046
21
-4.15775
0
LINE
8
BLACK
6
CONTINUOUS
10
5.06046
20
-4.15775
11
5.0606
21
-4.1582
0
LINE
8
BLACK
6
CONTINUOUS
10
5.0606
20
-4.1582
11
5.06063
21
-4.15855
0
LINE
8
BLACK
6
CONTINUOUS
10
5.06063
20
-4.15855
11
5.06063
21
-4.17559
0
LINE
8
BLACK
6
CONTINUOUS
10
5.06063
20
-4.17559
11
5.07649
21
-4.17559
0
LINE
8
BLACK
6
CONTINUOUS
10
5.07649
20
-4.17559
11
5.07684
21
-4.17562
0
LINE
8
BLACK
6
CONTINUOUS
10
5.07684
20
-4.17562
11
5.07729
21
-4.17576
0
LINE
8
BLACK
6
CONTINUOUS
10
5.07729
20
-4.17576
11
5.0777
21
-4.17598
0
LINE
8
BLACK
6
CONTINUOUS
10
5.0777
20
-4.17598
11
5.07806
21
-4.17627
0
LINE
8
BLACK
6
CONTINUOUS
10
5.07806
20
-4.17627
11
5.07835
21
-4.17663
0
LINE
8
BLACK
6
CONTINUOUS
10
5.07835
20
-4.17663
11
5.07857
21
-4.17704
0
LINE
8
BLACK
6
CONTINUOUS
10
5.07857
20
-4.17704
11
5.07871
21
-4.17749
0
LINE
8
BLACK
6
CONTINUOUS
10
5.07871
20
-4.17749
11
5.07875
21
-4.17795
0
LINE
8
BLACK
6
CONTINUOUS
10
5.07875
20
-4.17795
11
5.07871
21
-4.17842
0
LINE
8
BLACK
6
CONTINUOUS
10
5.07871
20
-4.17842
11
5.07857
21
-4.17886
0
LINE
8
BLACK
6
CONTINUOUS
10
5.07857
20
-4.17886
11
5.07835
21
-4.17927
0
LINE
8
BLACK
6
CONTINUOUS
10
5.07835
20
-4.17927
11
5.07806
21
-4.17963
0
LINE
8
BLACK
6
CONTINUOUS
10
5.07806
20
-4.17963
11
5.0777
21
-4.17993
0
LINE
8
BLACK
6
CONTINUOUS
10
5.0777
20
-4.17993
11
5.07729
21
-4.18015
0
LINE
8
BLACK
6
CONTINUOUS
10
5.07729
20
-4.18015
11
5.07684
21
-4.18028
0
LINE
8
BLACK
6
CONTINUOUS
10
5.07684
20
-4.18028
11
5.07649
21
-4.18031
0
LINE
8
BLACK
6
CONTINUOUS
10
5.07649
20
-4.18031
11
5.05838
21
-4.18031
0
LINE
8
BLACK
6
CONTINUOUS
10
5.05838
20
-4.18031
11
5.05827
21
-4.18033
0
LINE
8
BLACK
6
CONTINUOUS
10
5.05827
20
-4.18033
11
5.0578
21
-4.18028
0
LINE
8
BLACK
6
CONTINUOUS
10
5.0578
20
-4.18028
11
5.05736
21
-4.18015
0
LINE
8
BLACK
6
CONTINUOUS
10
5.05736
20
-4.18015
11
5.05695
21
-4.17993
0
LINE
8
BLACK
6
CONTINUOUS
10
5.05695
20
-4.17993
11
5.05659
21
-4.17963
0
LINE
8
BLACK
6
CONTINUOUS
10
5.05659
20
-4.17963
11
5.05629
21
-4.17927
0
LINE
8
BLACK
6
CONTINUOUS
10
5.05629
20
-4.17927
11
5.05607
21
-4.17886
0
LINE
8
BLACK
6
CONTINUOUS
10
5.05607
20
-4.17886
11
5.05594
21
-4.17842
0
LINE
8
BLACK
6
CONTINUOUS
10
5.05594
20
-4.17842
11
5.05589
21
-4.17795
0
LINE
8
BLACK
6
CONTINUOUS
10
5.05589
20
-4.17795
11
5.05591
21
-4.17784
0
LINE
8
BLACK
6
CONTINUOUS
10
5.05591
20
-4.17784
11
5.05591
21
-4.15855
0
LINE
8
BLACK
6
CONTINUOUS
10
5.05591
20
-4.15855
11
5.05594
21
-4.1582
0
LINE
8
BLACK
6
CONTINUOUS
10
5.05594
20
-4.1582
11
5.05607
21
-4.15775
0
LINE
8
BLACK
6
CONTINUOUS
10
5.05607
20
-4.15775
11
5.05629
21
-4.15734
0
LINE
8
BLACK
6
CONTINUOUS
10
5.05629
20
-4.15734
11
5.05659
21
-4.15698
0
LINE
8
BLACK
6
CONTINUOUS
10
5.05659
20
-4.15698
11
5.05695
21
-4.15669
0
LINE
8
BLACK
6
CONTINUOUS
10
5.05695
20
-4.15669
11
5.05736
21
-4.15647
0
LINE
8
BLACK
6
CONTINUOUS
10
5.05736
20
-4.15647
11
5.0578
21
-4.15633
0
LINE
8
BLACK
6
CONTINUOUS
10
5.0578
20
-4.15633
11
5.05827
21
-4.15629
0
LINE
8
BLACK
6
CONTINUOUS
10
5.05827
20
-4.15629
11
5.05873
21
-4.15633
0
LINE
8
BLACK
6
CONTINUOUS
10
5.21621
20
-4.15751
11
5.21666
21
-4.15765
0
LINE
8
BLACK
6
CONTINUOUS
10
5.21666
20
-4.15765
11
5.21707
21
-4.15787
0
LINE
8
BLACK
6
CONTINUOUS
10
5.21707
20
-4.15787
11
5.21743
21
-4.15816
0
LINE
8
BLACK
6
CONTINUOUS
10
5.21743
20
-4.15816
11
5.21772
21
-4.15852
0
LINE
8
BLACK
6
CONTINUOUS
10
5.21772
20
-4.15852
11
5.21794
21
-4.15893
0
LINE
8
BLACK
6
CONTINUOUS
10
5.21794
20
-4.15893
11
5.21808
21
-4.15938
0
LINE
8
BLACK
6
CONTINUOUS
10
5.21808
20
-4.15938
11
5.21811
21
-4.15973
0
LINE
8
BLACK
6
CONTINUOUS
10
5.21811
20
-4.15973
11
5.21811
21
-4.17784
0
LINE
8
BLACK
6
CONTINUOUS
10
5.21811
20
-4.17784
11
5.21812
21
-4.17795
0
LINE
8
BLACK
6
CONTINUOUS
10
5.21812
20
-4.17795
11
5.21808
21
-4.17842
0
LINE
8
BLACK
6
CONTINUOUS
10
5.21808
20
-4.17842
11
5.21794
21
-4.17886
0
LINE
8
BLACK
6
CONTINUOUS
10
5.21794
20
-4.17886
11
5.21772
21
-4.17927
0
LINE
8
BLACK
6
CONTINUOUS
10
5.21772
20
-4.17927
11
5.21743
21
-4.17963
0
LINE
8
BLACK
6
CONTINUOUS
10
5.21743
20
-4.17963
11
5.21707
21
-4.17993
0
LINE
8
BLACK
6
CONTINUOUS
10
5.21707
20
-4.17993
11
5.21666
21
-4.18015
0
LINE
8
BLACK
6
CONTINUOUS
10
5.21666
20
-4.18015
11
5.21621
21
-4.18028
0
LINE
8
BLACK
6
CONTINUOUS
10
5.21621
20
-4.18028
11
5.21586
21
-4.18031
0
LINE
8
BLACK
6
CONTINUOUS
10
5.21586
20
-4.18031
11
5.21586
21
-4.18031
0
LINE
8
BLACK
6
CONTINUOUS
10
5.21586
20
-4.18031
11
5.21575
21
-4.18033
0
LINE
8
BLACK
6
CONTINUOUS
10
5.21575
20
-4.18033
11
5.21563
21
-4.18031
0
LINE
8
BLACK
6
CONTINUOUS
10
5.21563
20
-4.18031
11
5.19634
21
-4.18031
0
LINE
8
BLACK
6
CONTINUOUS
10
5.19634
20
-4.18031
11
5.19599
21
-4.18028
0
LINE
8
BLACK
6
CONTINUOUS
10
5.19599
20
-4.18028
11
5.19555
21
-4.18015
0
LINE
8
BLACK
6
CONTINUOUS
10
5.19555
20
-4.18015
11
5.19514
21
-4.17993
0
LINE
8
BLACK
6
CONTINUOUS
10
5.19514
20
-4.17993
11
5.19478
21
-4.17963
0
LINE
8
BLACK
6
CONTINUOUS
10
5.19478
20
-4.17963
11
5.19448
21
-4.17927
0
LINE
8
BLACK
6
CONTINUOUS
10
5.19448
20
-4.17927
11
5.19426
21
-4.17886
0
LINE
8
BLACK
6
CONTINUOUS
10
5.19426
20
-4.17886
11
5.19413
21
-4.17842
0
LINE
8
BLACK
6
CONTINUOUS
10
5.19413
20
-4.17842
11
5.19408
21
-4.17795
0
LINE
8
BLACK
6
CONTINUOUS
10
5.19408
20
-4.17795
11
5.19413
21
-4.17749
0
LINE
8
BLACK
6
CONTINUOUS
10
5.19413
20
-4.17749
11
5.19426
21
-4.17704
0
LINE
8
BLACK
6
CONTINUOUS
10
5.19426
20
-4.17704
11
5.19448
21
-4.17663
0
LINE
8
BLACK
6
CONTINUOUS
10
5.19448
20
-4.17663
11
5.19478
21
-4.17627
0
LINE
8
BLACK
6
CONTINUOUS
10
5.19478
20
-4.17627
11
5.19514
21
-4.17598
0
LINE
8
BLACK
6
CONTINUOUS
10
5.19514
20
-4.17598
11
5.19555
21
-4.17576
0
LINE
8
BLACK
6
CONTINUOUS
10
5.19555
20
-4.17576
11
5.19599
21
-4.17562
0
LINE
8
BLACK
6
CONTINUOUS
10
5.19599
20
-4.17562
11
5.19634
21
-4.17559
0
LINE
8
BLACK
6
CONTINUOUS
10
5.19634
20
-4.17559
11
5.21339
21
-4.17559
0
LINE
8
BLACK
6
CONTINUOUS
10
5.21339
20
-4.17559
11
5.21339
21
-4.15973
0
LINE
8
BLACK
6
CONTINUOUS
10
5.21339
20
-4.15973
11
5.21342
21
-4.15938
0
LINE
8
BLACK
6
CONTINUOUS
10
5.21342
20
-4.15938
11
5.21356
21
-4.15893
0
LINE
8
BLACK
6
CONTINUOUS
10
5.21356
20
-4.15893
11
5.21377
21
-4.15852
0
LINE
8
BLACK
6
CONTINUOUS
10
5.21377
20
-4.15852
11
5.21407
21
-4.15816
0
LINE
8
BLACK
6
CONTINUOUS
10
5.21407
20
-4.15816
11
5.21443
21
-4.15787
0
LINE
8
BLACK
6
CONTINUOUS
10
5.21443
20
-4.15787
11
5.21484
21
-4.15765
0
LINE
8
BLACK
6
CONTINUOUS
10
5.21484
20
-4.15765
11
5.21528
21
-4.15751
0
LINE
8
BLACK
6
CONTINUOUS
10
5.21528
20
-4.15751
11
5.21575
21
-4.15747
0
LINE
8
BLACK
6
CONTINUOUS
10
5.21575
20
-4.15747
11
5.21621
21
-4.15751
0
LINE
8
BLACK
6
CONTINUOUS
10
5.21586
20
-3.93898
11
5.21586
21
-3.93898
0
LINE
8
BLACK
6
CONTINUOUS
10
5.21586
20
-3.93898
11
5.21621
21
-3.93901
0
LINE
8
BLACK
6
CONTINUOUS
10
5.21621
20
-3.93901
11
5.21666
21
-3.93915
0
LINE
8
BLACK
6
CONTINUOUS
10
5.21666
20
-3.93915
11
5.21707
21
-3.93937
0
LINE
8
BLACK
6
CONTINUOUS
10
5.21707
20
-3.93937
11
5.21743
21
-3.93966
0
LINE
8
BLACK
6
CONTINUOUS
10
5.21743
20
-3.93966
11
5.21772
21
-3.94002
0
LINE
8
BLACK
6
CONTINUOUS
10
5.21772
20
-3.94002
11
5.21794
21
-3.94043
0
LINE
8
BLACK
6
CONTINUOUS
10
5.21794
20
-3.94043
11
5.21808
21
-3.94088
0
LINE
8
BLACK
6
CONTINUOUS
10
5.21808
20
-3.94088
11
5.21812
21
-3.94134
0
LINE
8
BLACK
6
CONTINUOUS
10
5.21812
20
-3.94134
11
5.21811
21
-3.94145
0
LINE
8
BLACK
6
CONTINUOUS
10
5.21811
20
-3.94145
11
5.21811
21
-3.96075
0
LINE
8
BLACK
6
CONTINUOUS
10
5.21811
20
-3.96075
11
5.21808
21
-3.96109
0
LINE
8
BLACK
6
CONTINUOUS
10
5.21808
20
-3.96109
11
5.21794
21
-3.96154
0
LINE
8
BLACK
6
CONTINUOUS
10
5.21794
20
-3.96154
11
5.21772
21
-3.96195
0
LINE
8
BLACK
6
CONTINUOUS
10
5.21772
20
-3.96195
11
5.21743
21
-3.96231
0
LINE
8
BLACK
6
CONTINUOUS
10
5.21743
20
-3.96231
11
5.21707
21
-3.9626
0
LINE
8
BLACK
6
CONTINUOUS
10
5.21707
20
-3.9626
11
5.21666
21
-3.96282
0
LINE
8
BLACK
6
CONTINUOUS
10
5.21666
20
-3.96282
11
5.21621
21
-3.96296
0
LINE
8
BLACK
6
CONTINUOUS
10
5.21621
20
-3.96296
11
5.21575
21
-3.963
0
LINE
8
BLACK
6
CONTINUOUS
10
5.21575
20
-3.963
11
5.21528
21
-3.96296
0
LINE
8
BLACK
6
CONTINUOUS
10
5.21528
20
-3.96296
11
5.21484
21
-3.96282
0
LINE
8
BLACK
6
CONTINUOUS
10
5.21484
20
-3.96282
11
5.21443
21
-3.9626
0
LINE
8
BLACK
6
CONTINUOUS
10
5.21443
20
-3.9626
11
5.21407
21
-3.96231
0
LINE
8
BLACK
6
CONTINUOUS
10
5.21407
20
-3.96231
11
5.21377
21
-3.96195
0
LINE
8
BLACK
6
CONTINUOUS
10
5.21377
20
-3.96195
11
5.21356
21
-3.96154
0
LINE
8
BLACK
6
CONTINUOUS
10
5.21356
20
-3.96154
11
5.21342
21
-3.96109
0
LINE
8
BLACK
6
CONTINUOUS
10
5.21342
20
-3.96109
11
5.21339
21
-3.96075
0
LINE
8
BLACK
6
CONTINUOUS
10
5.21339
20
-3.96075
11
5.21339
21
-3.9437
0
LINE
8
BLACK
6
CONTINUOUS
10
5.21339
20
-3.9437
11
5.19752
21
-3.9437
0
LINE
8
BLACK
6
CONTINUOUS
10
5.19752
20
-3.9437
11
5.19717
21
-3.94367
0
LINE
8
BLACK
6
CONTINUOUS
10
5.19717
20
-3.94367
11
5.19673
21
-3.94353
0
LINE
8
BLACK
6
CONTINUOUS
10
5.19673
20
-3.94353
11
5.19632
21
-3.94331
0
LINE
8
BLACK
6
CONTINUOUS
10
5.19632
20
-3.94331
11
5.19596
21
-3.94302
0
LINE
8
BLACK
6
CONTINUOUS
10
5.19596
20
-3.94302
11
5.19566
21
-3.94266
0
LINE
8
BLACK
6
CONTINUOUS
10
5.19566
20
-3.94266
11
5.19544
21
-3.94225
0
LINE
8
BLACK
6
CONTINUOUS
10
5.19544
20
-3.94225
11
5.19531
21
-3.9418
0
LINE
8
BLACK
6
CONTINUOUS
10
5.19531
20
-3.9418
11
5.19526
21
-3.94134
0
LINE
8
BLACK
6
CONTINUOUS
10
5.19526
20
-3.94134
11
5.19531
21
-3.94088
0
LINE
8
BLACK
6
CONTINUOUS
10
5.19531
20
-3.94088
11
5.19544
21
-3.94043
0
LINE
8
BLACK
6
CONTINUOUS
10
5.19544
20
-3.94043
11
5.19566
21
-3.94002
0
LINE
8
BLACK
6
CONTINUOUS
10
5.19566
20
-3.94002
11
5.19596
21
-3.93966
0
LINE
8
BLACK
6
CONTINUOUS
10
5.19596
20
-3.93966
11
5.19632
21
-3.93937
0
LINE
8
BLACK
6
CONTINUOUS
10
5.19632
20
-3.93937
11
5.19673
21
-3.93915
0
LINE
8
BLACK
6
CONTINUOUS
10
5.19673
20
-3.93915
11
5.19717
21
-3.93901
0
LINE
8
BLACK
6
CONTINUOUS
10
5.19717
20
-3.93901
11
5.19752
21
-3.93898
0
LINE
8
BLACK
6
CONTINUOUS
10
5.19752
20
-3.93898
11
5.21563
21
-3.93898
0
LINE
8
BLACK
6
CONTINUOUS
10
5.21563
20
-3.93898
11
5.21575
21
-3.93896
0
LINE
8
BLACK
6
CONTINUOUS
10
5.21575
20
-3.93896
11
5.21586
21
-3.93898
0
LINE
8
BLACK
6
CONTINUOUS
10
5.05838
20
-3.93937
11
5.07768
21
-3.93937
0
LINE
8
BLACK
6
CONTINUOUS
10
5.07768
20
-3.93937
11
5.07802
21
-3.9394
0
LINE
8
BLACK
6
CONTINUOUS
10
5.07802
20
-3.9394
11
5.07847
21
-3.93954
0
LINE
8
BLACK
6
CONTINUOUS
10
5.07847
20
-3.93954
11
5.07888
21
-3.93976
0
LINE
8
BLACK
6
CONTINUOUS
10
5.07888
20
-3.93976
11
5.07924
21
-3.94005
0
LINE
8
BLACK
6
CONTINUOUS
10
5.07924
20
-3.94005
11
5.07953
21
-3.94041
0
LINE
8
BLACK
6
CONTINUOUS
10
5.07953
20
-3.94041
11
5.07975
21
-3.94082
0
LINE
8
BLACK
6
CONTINUOUS
10
5.07975
20
-3.94082
11
5.07989
21
-3.94127
0
LINE
8
BLACK
6
CONTINUOUS
10
5.07989
20
-3.94127
11
5.07993
21
-3.94173
0
LINE
8
BLACK
6
CONTINUOUS
10
5.07993
20
-3.94173
11
5.07989
21
-3.9422
0
LINE
8
BLACK
6
CONTINUOUS
10
5.07989
20
-3.9422
11
5.07975
21
-3.94264
0
LINE
8
BLACK
6
CONTINUOUS
10
5.07975
20
-3.94264
11
5.07953
21
-3.94305
0
LINE
8
BLACK
6
CONTINUOUS
10
5.07953
20
-3.94305
11
5.07924
21
-3.94341
0
LINE
8
BLACK
6
CONTINUOUS
10
5.07924
20
-3.94341
11
5.07888
21
-3.94371
0
LINE
8
BLACK
6
CONTINUOUS
10
5.07888
20
-3.94371
11
5.07847
21
-3.94393
0
LINE
8
BLACK
6
CONTINUOUS
10
5.07847
20
-3.94393
11
5.07802
21
-3.94406
0
LINE
8
BLACK
6
CONTINUOUS
10
5.07802
20
-3.94406
11
5.07768
21
-3.94409
0
LINE
8
BLACK
6
CONTINUOUS
10
5.07768
20
-3.94409
11
5.06063
21
-3.94409
0
LINE
8
BLACK
6
CONTINUOUS
10
5.06063
20
-3.94409
11
5.06063
21
-3.95996
0
LINE
8
BLACK
6
CONTINUOUS
10
5.06063
20
-3.95996
11
5.0606
21
-3.96031
0
LINE
8
BLACK
6
CONTINUOUS
10
5.0606
20
-3.96031
11
5.06046
21
-3.96075
0
LINE
8
BLACK
6
CONTINUOUS
10
5.06046
20
-3.96075
11
5.06024
21
-3.96116
0
LINE
8
BLACK
6
CONTINUOUS
10
5.06024
20
-3.96116
11
5.05995
21
-3.96152
0
LINE
8
BLACK
6
CONTINUOUS
10
5.05995
20
-3.96152
11
5.05959
21
-3.96182
0
LINE
8
BLACK
6
CONTINUOUS
10
5.05959
20
-3.96182
11
5.05918
21
-3.96204
0
LINE
8
BLACK
6
CONTINUOUS
10
5.05918
20
-3.96204
11
5.05873
21
-3.96217
0
LINE
8
BLACK
6
CONTINUOUS
10
5.05873
20
-3.96217
11
5.05827
21
-3.96222
0
LINE
8
BLACK
6
CONTINUOUS
10
5.05827
20
-3.96222
11
5.0578
21
-3.96217
0
LINE
8
BLACK
6
CONTINUOUS
10
5.0578
20
-3.96217
11
5.05736
21
-3.96204
0
LINE
8
BLACK
6
CONTINUOUS
10
5.05736
20
-3.96204
11
5.05695
21
-3.96182
0
LINE
8
BLACK
6
CONTINUOUS
10
5.05695
20
-3.96182
11
5.05659
21
-3.96152
0
LINE
8
BLACK
6
CONTINUOUS
10
5.05659
20
-3.96152
11
5.05629
21
-3.96116
0
LINE
8
BLACK
6
CONTINUOUS
10
5.05629
20
-3.96116
11
5.05607
21
-3.96075
0
LINE
8
BLACK
6
CONTINUOUS
10
5.05607
20
-3.96075
11
5.05594
21
-3.96031
0
LINE
8
BLACK
6
CONTINUOUS
10
5.05594
20
-3.96031
11
5.05591
21
-3.95996
0
LINE
8
BLACK
6
CONTINUOUS
10
5.05591
20
-3.95996
11
5.05591
21
-3.94185
0
LINE
8
BLACK
6
CONTINUOUS
10
5.05591
20
-3.94185
11
5.05589
21
-3.94173
0
LINE
8
BLACK
6
CONTINUOUS
10
5.05589
20
-3.94173
11
5.05594
21
-3.94127
0
LINE
8
BLACK
6
CONTINUOUS
10
5.05594
20
-3.94127
11
5.05607
21
-3.94082
0
LINE
8
BLACK
6
CONTINUOUS
10
5.05607
20
-3.94082
11
5.05629
21
-3.94041
0
LINE
8
BLACK
6
CONTINUOUS
10
5.05629
20
-3.94041
11
5.05659
21
-3.94005
0
LINE
8
BLACK
6
CONTINUOUS
10
5.05659
20
-3.94005
11
5.05695
21
-3.93976
0
LINE
8
BLACK
6
CONTINUOUS
10
5.05695
20
-3.93976
11
5.05736
21
-3.93954
0
LINE
8
BLACK
6
CONTINUOUS
10
5.05736
20
-3.93954
11
5.0578
21
-3.9394
0
LINE
8
BLACK
6
CONTINUOUS
10
5.0578
20
-3.9394
11
5.05815
21
-3.93937
0
LINE
8
BLACK
6
CONTINUOUS
10
5.05815
20
-3.93937
11
5.05827
21
-3.93936
0
LINE
8
BLACK
6
CONTINUOUS
10
5.05827
20
-3.93936
11
5.05838
21
-3.93937
0
LINE
8
BLACK
6
CONTINUOUS
10
5.24928
20
-3.89746
11
5.24934
21
-3.89747
0
LINE
8
BLACK
6
CONTINUOUS
10
5.24934
20
-3.89747
11
5.24939
21
-3.89747
0
LINE
8
BLACK
6
CONTINUOUS
10
5.24939
20
-3.89747
11
5.24943
21
-3.89748
0
LINE
8
BLACK
6
CONTINUOUS
10
5.24943
20
-3.89748
11
5.24947
21
-3.89748
0
LINE
8
BLACK
6
CONTINUOUS
10
5.24947
20
-3.89748
11
5.24953
21
-3.8975
0
LINE
8
BLACK
6
CONTINUOUS
10
5.24953
20
-3.8975
11
5.24958
21
-3.89751
0
LINE
8
BLACK
6
CONTINUOUS
10
5.24958
20
-3.89751
11
5.2507
21
-3.89789
0
LINE
8
BLACK
6
CONTINUOUS
10
5.2507
20
-3.89789
11
5.25072
21
-3.89789
0
LINE
8
BLACK
6
CONTINUOUS
10
5.25072
20
-3.89789
11
5.25089
21
-3.89797
0
LINE
8
BLACK
6
CONTINUOUS
10
5.25089
20
-3.89797
11
5.25105
21
-3.89808
0
LINE
8
BLACK
6
CONTINUOUS
10
5.25105
20
-3.89808
11
5.25118
21
-3.89822
0
LINE
8
BLACK
6
CONTINUOUS
10
5.25118
20
-3.89822
11
5.25128
21
-3.89839
0
LINE
8
BLACK
6
CONTINUOUS
10
5.25128
20
-3.89839
11
5.25135
21
-3.89857
0
LINE
8
BLACK
6
CONTINUOUS
10
5.25135
20
-3.89857
11
5.25138
21
-3.89876
0
LINE
8
BLACK
6
CONTINUOUS
10
5.25138
20
-3.89876
11
5.25137
21
-3.89895
0
LINE
8
BLACK
6
CONTINUOUS
10
5.25137
20
-3.89895
11
5.25133
21
-3.89914
0
LINE
8
BLACK
6
CONTINUOUS
10
5.25133
20
-3.89914
11
5.25125
21
-3.89931
0
LINE
8
BLACK
6
CONTINUOUS
10
5.25125
20
-3.89931
11
5.25113
21
-3.89947
0
LINE
8
BLACK
6
CONTINUOUS
10
5.25113
20
-3.89947
11
5.25099
21
-3.8996
0
LINE
8
BLACK
6
CONTINUOUS
10
5.25099
20
-3.8996
11
5.25083
21
-3.8997
0
LINE
8
BLACK
6
CONTINUOUS
10
5.25083
20
-3.8997
11
5.25065
21
-3.89977
0
LINE
8
BLACK
6
CONTINUOUS
10
5.25065
20
-3.89977
11
5.25046
21
-3.8998
0
LINE
8
BLACK
6
CONTINUOUS
10
5.25046
20
-3.8998
11
5.25027
21
-3.8998
0
LINE
8
BLACK
6
CONTINUOUS
10
5.25027
20
-3.8998
11
5.25008
21
-3.89975
0
LINE
8
BLACK
6
CONTINUOUS
10
5.25008
20
-3.89975
11
5.24911
21
-3.89943
0
LINE
8
BLACK
6
CONTINUOUS
10
5.24911
20
-3.89943
11
5.24763
21
-3.89943
0
LINE
8
BLACK
6
CONTINUOUS
10
5.24763
20
-3.89943
11
5.24723
21
-3.89963
0
LINE
8
BLACK
6
CONTINUOUS
10
5.24723
20
-3.89963
11
5.24708
21
-3.89978
0
LINE
8
BLACK
6
CONTINUOUS
10
5.24708
20
-3.89978
11
5.24688
21
-3.90018
0
LINE
8
BLACK
6
CONTINUOUS
10
5.24688
20
-3.90018
11
5.24688
21
-3.90046
0
LINE
8
BLACK
6
CONTINUOUS
10
5.24688
20
-3.90046
11
5.24708
21
-3.90086
0
LINE
8
BLACK
6
CONTINUOUS
10
5.24708
20
-3.90086
11
5.24723
21
-3.90101
0
LINE
8
BLACK
6
CONTINUOUS
10
5.24723
20
-3.90101
11
5.24774
21
-3.90126
0
LINE
8
BLACK
6
CONTINUOUS
10
5.24774
20
-3.90126
11
5.24913
21
-3.90161
0
LINE
8
BLACK
6
CONTINUOUS
10
5.24913
20
-3.90161
11
5.24915
21
-3.90162
0
LINE
8
BLACK
6
CONTINUOUS
10
5.24915
20
-3.90162
11
5.24915
21
-3.90162
0
LINE
8
BLACK
6
CONTINUOUS
10
5.24915
20
-3.90162
11
5.24915
21
-3.90162
0
LINE
8
BLACK
6
CONTINUOUS
10
5.24915
20
-3.90162
11
5.24924
21
-3.90165
0
LINE
8
BLACK
6
CONTINUOUS
10
5.24924
20
-3.90165
11
5.24933
21
-3.90168
0
LINE
8
BLACK
6
CONTINUOUS
10
5.24933
20
-3.90168
11
5.24933
21
-3.90169
0
LINE
8
BLACK
6
CONTINUOUS
10
5.24933
20
-3.90169
11
5.24933
21
-3.90169
0
LINE
8
BLACK
6
CONTINUOUS
10
5.24933
20
-3.90169
11
5.25008
21
-3.90206
0
LINE
8
BLACK
6
CONTINUOUS
10
5.25008
20
-3.90206
11
5.2501
21
-3.90207
0
LINE
8
BLACK
6
CONTINUOUS
10
5.2501
20
-3.90207
11
5.25014
21
-3.9021
0
LINE
8
BLACK
6
CONTINUOUS
10
5.25014
20
-3.9021
11
5.25019
21
-3.90213
0
LINE
8
BLACK
6
CONTINUOUS
10
5.25019
20
-3.90213
11
5.25022
21
-3.90215
0
LINE
8
BLACK
6
CONTINUOUS
10
5.25022
20
-3.90215
11
5.25026
21
-3.90217
0
LINE
8
BLACK
6
CONTINUOUS
10
5.25026
20
-3.90217
11
5.2503
21
-3.90221
0
LINE
8
BLACK
6
CONTINUOUS
10
5.2503
20
-3.90221
11
5.25034
21
-3.90225
0
LINE
8
BLACK
6
CONTINUOUS
10
5.25034
20
-3.90225
11
5.25071
21
-3.90262
0
LINE
8
BLACK
6
CONTINUOUS
10
5.25071
20
-3.90262
11
5.25072
21
-3.90263
0
LINE
8
BLACK
6
CONTINUOUS
10
5.25072
20
-3.90263
11
5.25076
21
-3.90268
0
LINE
8
BLACK
6
CONTINUOUS
10
5.25076
20
-3.90268
11
5.2508
21
-3.90272
0
LINE
8
BLACK
6
CONTINUOUS
10
5.2508
20
-3.90272
11
5.25082
21
-3.90275
0
LINE
8
BLACK
6
CONTINUOUS
10
5.25082
20
-3.90275
11
5.25084
21
-3.90278
0
LINE
8
BLACK
6
CONTINUOUS
10
5.25084
20
-3.90278
11
5.25087
21
-3.90283
0
LINE
8
BLACK
6
CONTINUOUS
10
5.25087
20
-3.90283
11
5.2509
21
-3.90288
0
LINE
8
BLACK
6
CONTINUOUS
10
5.2509
20
-3.90288
11
5.25127
21
-3.90363
0
LINE
8
BLACK
6
CONTINUOUS
10
5.25127
20
-3.90363
11
5.25128
21
-3.90364
0
LINE
8
BLACK
6
CONTINUOUS
10
5.25128
20
-3.90364
11
5.25129
21
-3.90367
0
LINE
8
BLACK
6
CONTINUOUS
10
5.25129
20
-3.90367
11
5.2513
21
-3.90369
0
LINE
8
BLACK
6
CONTINUOUS
10
5.2513
20
-3.90369
11
5.25132
21
-3.90376
0
LINE
8
BLACK
6
CONTINUOUS
10
5.25132
20
-3.90376
11
5.25135
21
-3.90382
0
LINE
8
BLACK
6
CONTINUOUS
10
5.25135
20
-3.90382
11
5.25135
21
-3.90385
0
LINE
8
BLACK
6
CONTINUOUS
10
5.25135
20
-3.90385
11
5.25136
21
-3.90388
0
LINE
8
BLACK
6
CONTINUOUS
10
5.25136
20
-3.90388
11
5.25137
21
-3.90394
0
LINE
8
BLACK
6
CONTINUOUS
10
5.25137
20
-3.90394
11
5.25138
21
-3.90401
0
LINE
8
BLACK
6
CONTINUOUS
10
5.25138
20
-3.90401
11
5.25138
21
-3.90404
0
LINE
8
BLACK
6
CONTINUOUS
10
5.25138
20
-3.90404
11
5.25138
21
-3.90407
0
LINE
8
BLACK
6
CONTINUOUS
10
5.25138
20
-3.90407
11
5.25138
21
-3.90482
0
LINE
8
BLACK
6
CONTINUOUS
10
5.25138
20
-3.90482
11
5.25138
21
-3.90483
0
LINE
8
BLACK
6
CONTINUOUS
10
5.25138
20
-3.90483
11
5.25137
21
-3.90486
0
LINE
8
BLACK
6
CONTINUOUS
10
5.25137
20
-3.90486
11
5.25138
21
-3.90489
0
LINE
8
BLACK
6
CONTINUOUS
10
5.25138
20
-3.90489
11
5.25136
21
-3.90496
0
LINE
8
BLACK
6
CONTINUOUS
10
5.25136
20
-3.90496
11
5.25136
21
-3.90502
0
LINE
8
BLACK
6
CONTINUOUS
10
5.25136
20
-3.90502
11
5.25135
21
-3.90505
0
LINE
8
BLACK
6
CONTINUOUS
10
5.25135
20
-3.90505
11
5.25134
21
-3.90508
0
LINE
8
BLACK
6
CONTINUOUS
10
5.25134
20
-3.90508
11
5.25132
21
-3.90514
0
LINE
8
BLACK
6
CONTINUOUS
10
5.25132
20
-3.90514
11
5.2513
21
-3.90521
0
LINE
8
BLACK
6
CONTINUOUS
10
5.2513
20
-3.90521
11
5.25128
21
-3.90523
0
LINE
8
BLACK
6
CONTINUOUS
10
5.25128
20
-3.90523
11
5.25127
21
-3.90526
0
LINE
8
BLACK
6
CONTINUOUS
10
5.25127
20
-3.90526
11
5.2509
21
-3.90601
0
LINE
8
BLACK
6
CONTINUOUS
10
5.2509
20
-3.90601
11
5.25089
21
-3.90602
0
LINE
8
BLACK
6
CONTINUOUS
10
5.25089
20
-3.90602
11
5.25086
21
-3.90607
0
LINE
8
BLACK
6
CONTINUOUS
10
5.25086
20
-3.90607
11
5.25084
21
-3.90612
0
LINE
8
BLACK
6
CONTINUOUS
10
5.25084
20
-3.90612
11
5.25081
21
-3.90615
0
LINE
8
BLACK
6
CONTINUOUS
10
5.25081
20
-3.90615
11
5.25079
21
-3.90618
0
LINE
8
BLACK
6
CONTINUOUS
10
5.25079
20
-3.90618
11
5.25075
21
-3.90622
0
LINE
8
BLACK
6
CONTINUOUS
10
5.25075
20
-3.90622
11
5.25071
21
-3.90626
0
LINE
8
BLACK
6
CONTINUOUS
10
5.25071
20
-3.90626
11
5.25034
21
-3.90664
0
LINE
8
BLACK
6
CONTINUOUS
10
5.25034
20
-3.90664
11
5.25033
21
-3.90665
0
LINE
8
BLACK
6
CONTINUOUS
10
5.25033
20
-3.90665
11
5.25029
21
-3.90668
0
LINE
8
BLACK
6
CONTINUOUS
10
5.25029
20
-3.90668
11
5.25025
21
-3.90672
0
LINE
8
BLACK
6
CONTINUOUS
10
5.25025
20
-3.90672
11
5.25021
21
-3.90674
0
LINE
8
BLACK
6
CONTINUOUS
10
5.25021
20
-3.90674
11
5.25018
21
-3.90677
0
LINE
8
BLACK
6
CONTINUOUS
10
5.25018
20
-3.90677
11
5.25013
21
-3.90679
0
LINE
8
BLACK
6
CONTINUOUS
10
5.25013
20
-3.90679
11
5.25008
21
-3.90682
0
LINE
8
BLACK
6
CONTINUOUS
10
5.25008
20
-3.90682
11
5.24933
21
-3.9072
0
LINE
8
BLACK
6
CONTINUOUS
10
5.24933
20
-3.9072
11
5.24932
21
-3.9072
0
LINE
8
BLACK
6
CONTINUOUS
10
5.24932
20
-3.9072
11
5.24929
21
-3.90721
0
LINE
8
BLACK
6
CONTINUOUS
10
5.24929
20
-3.90721
11
5.24927
21
-3.90723
0
LINE
8
BLACK
6
CONTINUOUS
10
5.24927
20
-3.90723
11
5.2492
21
-3.90725
0
LINE
8
BLACK
6
CONTINUOUS
10
5.2492
20
-3.90725
11
5.24914
21
-3.90727
0
LINE
8
BLACK
6
CONTINUOUS
10
5.24914
20
-3.90727
11
5.24911
21
-3.90728
0
LINE
8
BLACK
6
CONTINUOUS
10
5.24911
20
-3.90728
11
5.24909
21
-3.90728
0
LINE
8
BLACK
6
CONTINUOUS
10
5.24909
20
-3.90728
11
5.24902
21
-3.90729
0
LINE
8
BLACK
6
CONTINUOUS
10
5.24902
20
-3.90729
11
5.24895
21
-3.9073
0
LINE
8
BLACK
6
CONTINUOUS
10
5.24895
20
-3.9073
11
5.24892
21
-3.9073
0
LINE
8
BLACK
6
CONTINUOUS
10
5.24892
20
-3.9073
11
5.24889
21
-3.9073
0
LINE
8
BLACK
6
CONTINUOUS
10
5.24889
20
-3.9073
11
5.24702
21
-3.9073
0
LINE
8
BLACK
6
CONTINUOUS
10
5.24702
20
-3.9073
11
5.24701
21
-3.9073
0
LINE
8
BLACK
6
CONTINUOUS
10
5.24701
20
-3.9073
11
5.24695
21
-3.9073
0
LINE
8
BLACK
6
CONTINUOUS
10
5.24695
20
-3.9073
11
5.2469
21
-3.90729
0
LINE
8
BLACK
6
CONTINUOUS
10
5.2469
20
-3.90729
11
5.24686
21
-3.90729
0
LINE
8
BLACK
6
CONTINUOUS
10
5.24686
20
-3.90729
11
5.24681
21
-3.90728
0
LINE
8
BLACK
6
CONTINUOUS
10
5.24681
20
-3.90728
11
5.24676
21
-3.90726
0
LINE
8
BLACK
6
CONTINUOUS
10
5.24676
20
-3.90726
11
5.24671
21
-3.90725
0
LINE
8
BLACK
6
CONTINUOUS
10
5.24671
20
-3.90725
11
5.24558
21
-3.90688
0
LINE
8
BLACK
6
CONTINUOUS
10
5.24558
20
-3.90688
11
5.24557
21
-3.90687
0
LINE
8
BLACK
6
CONTINUOUS
10
5.24557
20
-3.90687
11
5.2454
21
-3.90679
0
LINE
8
BLACK
6
CONTINUOUS
10
5.2454
20
-3.90679
11
5.24524
21
-3.90668
0
LINE
8
BLACK
6
CONTINUOUS
10
5.24524
20
-3.90668
11
5.24511
21
-3.90654
0
LINE
8
BLACK
6
CONTINUOUS
10
5.24511
20
-3.90654
11
5.24501
21
-3.90637
0
LINE
8
BLACK
6
CONTINUOUS
10
5.24501
20
-3.90637
11
5.24494
21
-3.90619
0
LINE
8
BLACK
6
CONTINUOUS
10
5.24494
20
-3.90619
11
5.24491
21
-3.906
0
LINE
8
BLACK
6
CONTINUOUS
10
5.24491
20
-3.906
11
5.24492
21
-3.90581
0
LINE
8
BLACK
6
CONTINUOUS
10
5.24492
20
-3.90581
11
5.24496
21
-3.90563
0
LINE
8
BLACK
6
CONTINUOUS
10
5.24496
20
-3.90563
11
5.24504
21
-3.90545
0
LINE
8
BLACK
6
CONTINUOUS
10
5.24504
20
-3.90545
11
5.24515
21
-3.90529
0
LINE
8
BLACK
6
CONTINUOUS
10
5.24515
20
-3.90529
11
5.24529
21
-3.90516
0
LINE
8
BLACK
6
CONTINUOUS
10
5.24529
20
-3.90516
11
5.24546
21
-3.90506
0
LINE
8
BLACK
6
CONTINUOUS
10
5.24546
20
-3.90506
11
5.24564
21
-3.90499
0
LINE
8
BLACK
6
CONTINUOUS
10
5.24564
20
-3.90499
11
5.24583
21
-3.90496
0
LINE
8
BLACK
6
CONTINUOUS
10
5.24583
20
-3.90496
11
5.24602
21
-3.90497
0
LINE
8
BLACK
6
CONTINUOUS
10
5.24602
20
-3.90497
11
5.24621
21
-3.90501
0
LINE
8
BLACK
6
CONTINUOUS
10
5.24621
20
-3.90501
11
5.24718
21
-3.90533
0
LINE
8
BLACK
6
CONTINUOUS
10
5.24718
20
-3.90533
11
5.24866
21
-3.90533
0
LINE
8
BLACK
6
CONTINUOUS
10
5.24866
20
-3.90533
11
5.24906
21
-3.90513
0
LINE
8
BLACK
6
CONTINUOUS
10
5.24906
20
-3.90513
11
5.24921
21
-3.90498
0
LINE
8
BLACK
6
CONTINUOUS
10
5.24921
20
-3.90498
11
5.24941
21
-3.90459
0
LINE
8
BLACK
6
CONTINUOUS
10
5.24941
20
-3.90459
11
5.24941
21
-3.9043
0
LINE
8
BLACK
6
CONTINUOUS
10
5.24941
20
-3.9043
11
5.24921
21
-3.9039
0
LINE
8
BLACK
6
CONTINUOUS
10
5.24921
20
-3.9039
11
5.24906
21
-3.90375
0
LINE
8
BLACK
6
CONTINUOUS
10
5.24906
20
-3.90375
11
5.24855
21
-3.9035
0
LINE
8
BLACK
6
CONTINUOUS
10
5.24855
20
-3.9035
11
5.24716
21
-3.90315
0
LINE
8
BLACK
6
CONTINUOUS
10
5.24716
20
-3.90315
11
5.24714
21
-3.90314
0
LINE
8
BLACK
6
CONTINUOUS
10
5.24714
20
-3.90314
11
5.24714
21
-3.90314
0
LINE
8
BLACK
6
CONTINUOUS
10
5.24714
20
-3.90314
11
5.24713
21
-3.90314
0
LINE
8
BLACK
6
CONTINUOUS
10
5.24713
20
-3.90314
11
5.24705
21
-3.90311
0
LINE
8
BLACK
6
CONTINUOUS
10
5.24705
20
-3.90311
11
5.24696
21
-3.90308
0
LINE
8
BLACK
6
CONTINUOUS
10
5.24696
20
-3.90308
11
5.24696
21
-3.90308
0
LINE
8
BLACK
6
CONTINUOUS
10
5.24696
20
-3.90308
11
5.24695
21
-3.90307
0
LINE
8
BLACK
6
CONTINUOUS
10
5.24695
20
-3.90307
11
5.2462
21
-3.9027
0
LINE
8
BLACK
6
CONTINUOUS
10
5.2462
20
-3.9027
11
5.24619
21
-3.90269
0
LINE
8
BLACK
6
CONTINUOUS
10
5.24619
20
-3.90269
11
5.24615
21
-3.90266
0
LINE
8
BLACK
6
CONTINUOUS
10
5.24615
20
-3.90266
11
5.2461
21
-3.90264
0
LINE
8
BLACK
6
CONTINUOUS
10
5.2461
20
-3.90264
11
5.24606
21
-3.90261
0
LINE
8
BLACK
6
CONTINUOUS
10
5.24606
20
-3.90261
11
5.24603
21
-3.90259
0
LINE
8
BLACK
6
CONTINUOUS
10
5.24603
20
-3.90259
11
5.24599
21
-3.90255
0
LINE
8
BLACK
6
CONTINUOUS
10
5.24599
20
-3.90255
11
5.24595
21
-3.90251
0
LINE
8
BLACK
6
CONTINUOUS
10
5.24595
20
-3.90251
11
5.24557
21
-3.90214
0
LINE
8
BLACK
6
CONTINUOUS
10
5.24557
20
-3.90214
11
5.24556
21
-3.90213
0
LINE
8
BLACK
6
CONTINUOUS
10
5.24556
20
-3.90213
11
5.24553
21
-3.90209
0
LINE
8
BLACK
6
CONTINUOUS
10
5.24553
20
-3.90209
11
5.24549
21
-3.90205
0
LINE
8
BLACK
6
CONTINUOUS
10
5.24549
20
-3.90205
11
5.24547
21
-3.90201
0
LINE
8
BLACK
6
CONTINUOUS
10
5.24547
20
-3.90201
11
5.24544
21
-3.90198
0
LINE
8
BLACK
6
CONTINUOUS
10
5.24544
20
-3.90198
11
5.24542
21
-3.90193
0
LINE
8
BLACK
6
CONTINUOUS
10
5.24542
20
-3.90193
11
5.24539
21
-3.90188
0
LINE
8
BLACK
6
CONTINUOUS
10
5.24539
20
-3.90188
11
5.24501
21
-3.90113
0
LINE
8
BLACK
6
CONTINUOUS
10
5.24501
20
-3.90113
11
5.24501
21
-3.90112
0
LINE
8
BLACK
6
CONTINUOUS
10
5.24501
20
-3.90112
11
5.245
21
-3.90109
0
LINE
8
BLACK
6
CONTINUOUS
10
5.245
20
-3.90109
11
5.24498
21
-3.90107
0
LINE
8
BLACK
6
CONTINUOUS
10
5.24498
20
-3.90107
11
5.24496
21
-3.901
0
LINE
8
BLACK
6
CONTINUOUS
10
5.24496
20
-3.901
11
5.24494
21
-3.90094
0
LINE
8
BLACK
6
CONTINUOUS
10
5.24494
20
-3.90094
11
5.24494
21
-3.90091
0
LINE
8
BLACK
6
CONTINUOUS
10
5.24494
20
-3.90091
11
5.24493
21
-3.90088
0
LINE
8
BLACK
6
CONTINUOUS
10
5.24493
20
-3.90088
11
5.24492
21
-3.90082
0
LINE
8
BLACK
6
CONTINUOUS
10
5.24492
20
-3.90082
11
5.24491
21
-3.90075
0
LINE
8
BLACK
6
CONTINUOUS
10
5.24491
20
-3.90075
11
5.24491
21
-3.90072
0
LINE
8
BLACK
6
CONTINUOUS
10
5.24491
20
-3.90072
11
5.24491
21
-3.90069
0
LINE
8
BLACK
6
CONTINUOUS
10
5.24491
20
-3.90069
11
5.24491
21
-3.89994
0
LINE
8
BLACK
6
CONTINUOUS
10
5.24491
20
-3.89994
11
5.24491
21
-3.89993
0
LINE
8
BLACK
6
CONTINUOUS
10
5.24491
20
-3.89993
11
5.24491
21
-3.8999
0
LINE
8
BLACK
6
CONTINUOUS
10
5.24491
20
-3.8999
11
5.24491
21
-3.89987
0
LINE
8
BLACK
6
CONTINUOUS
10
5.24491
20
-3.89987
11
5.24492
21
-3.89981
0
LINE
8
BLACK
6
CONTINUOUS
10
5.24492
20
-3.89981
11
5.24493
21
-3.89974
0
LINE
8
BLACK
6
CONTINUOUS
10
5.24493
20
-3.89974
11
5.24494
21
-3.89971
0
LINE
8
BLACK
6
CONTINUOUS
10
5.24494
20
-3.89971
11
5.24495
21
-3.89968
0
LINE
8
BLACK
6
CONTINUOUS
10
5.24495
20
-3.89968
11
5.24497
21
-3.89962
0
LINE
8
BLACK
6
CONTINUOUS
10
5.24497
20
-3.89962
11
5.24499
21
-3.89956
0
LINE
8
BLACK
6
CONTINUOUS
10
5.24499
20
-3.89956
11
5.245
21
-3.89953
0
LINE
8
BLACK
6
CONTINUOUS
10
5.245
20
-3.89953
11
5.24501
21
-3.8995
0
LINE
8
BLACK
6
CONTINUOUS
10
5.24501
20
-3.8995
11
5.24539
21
-3.89875
0
LINE
8
BLACK
6
CONTINUOUS
10
5.24539
20
-3.89875
11
5.2454
21
-3.89874
0
LINE
8
BLACK
6
CONTINUOUS
10
5.2454
20
-3.89874
11
5.24543
21
-3.89869
0
LINE
8
BLACK
6
CONTINUOUS
10
5.24543
20
-3.89869
11
5.24545
21
-3.89865
0
LINE
8
BLACK
6
CONTINUOUS
10
5.24545
20
-3.89865
11
5.24548
21
-3.89861
0
LINE
8
BLACK
6
CONTINUOUS
10
5.24548
20
-3.89861
11
5.2455
21
-3.89858
0
LINE
8
BLACK
6
CONTINUOUS
10
5.2455
20
-3.89858
11
5.24554
21
-3.89854
0
LINE
8
BLACK
6
CONTINUOUS
10
5.24554
20
-3.89854
11
5.24557
21
-3.8985
0
LINE
8
BLACK
6
CONTINUOUS
10
5.24557
20
-3.8985
11
5.24595
21
-3.89812
0
LINE
8
BLACK
6
CONTINUOUS
10
5.24595
20
-3.89812
11
5.24596
21
-3.89811
0
LINE
8
BLACK
6
CONTINUOUS
10
5.24596
20
-3.89811
11
5.246
21
-3.89808
0
LINE
8
BLACK
6
CONTINUOUS
10
5.246
20
-3.89808
11
5.24604
21
-3.89804
0
LINE
8
BLACK
6
CONTINUOUS
10
5.24604
20
-3.89804
11
5.24608
21
-3.89802
0
LINE
8
BLACK
6
CONTINUOUS
10
5.24608
20
-3.89802
11
5.24611
21
-3.89799
0
LINE
8
BLACK
6
CONTINUOUS
10
5.24611
20
-3.89799
11
5.24616
21
-3.89797
0
LINE
8
BLACK
6
CONTINUOUS
10
5.24616
20
-3.89797
11
5.2462
21
-3.89794
0
LINE
8
BLACK
6
CONTINUOUS
10
5.2462
20
-3.89794
11
5.24695
21
-3.89756
0
LINE
8
BLACK
6
CONTINUOUS
10
5.24695
20
-3.89756
11
5.24697
21
-3.89756
0
LINE
8
BLACK
6
CONTINUOUS
10
5.24697
20
-3.89756
11
5.24699
21
-3.89755
0
LINE
8
BLACK
6
CONTINUOUS
10
5.24699
20
-3.89755
11
5.24702
21
-3.89753
0
LINE
8
BLACK
6
CONTINUOUS
10
5.24702
20
-3.89753
11
5.24708
21
-3.89751
0
LINE
8
BLACK
6
CONTINUOUS
10
5.24708
20
-3.89751
11
5.24715
21
-3.89749
0
LINE
8
BLACK
6
CONTINUOUS
10
5.24715
20
-3.89749
11
5.24718
21
-3.89749
0
LINE
8
BLACK
6
CONTINUOUS
10
5.24718
20
-3.89749
11
5.2472
21
-3.89748
0
LINE
8
BLACK
6
CONTINUOUS
10
5.2472
20
-3.89748
11
5.24727
21
-3.89747
0
LINE
8
BLACK
6
CONTINUOUS
10
5.24727
20
-3.89747
11
5.24734
21
-3.89746
0
LINE
8
BLACK
6
CONTINUOUS
10
5.24734
20
-3.89746
11
5.24737
21
-3.89746
0
LINE
8
BLACK
6
CONTINUOUS
10
5.24737
20
-3.89746
11
5.24739
21
-3.89746
0
LINE
8
BLACK
6
CONTINUOUS
10
5.24739
20
-3.89746
11
5.24927
21
-3.89746
0
LINE
8
BLACK
6
CONTINUOUS
10
5.24927
20
-3.89746
11
5.24928
21
-3.89746
0
LINE
8
BLACK
6
CONTINUOUS
10
5.26053
20
-3.89746
11
5.26059
21
-3.89747
0
LINE
8
BLACK
6
CONTINUOUS
10
5.26059
20
-3.89747
11
5.26064
21
-3.89747
0
LINE
8
BLACK
6
CONTINUOUS
10
5.26064
20
-3.89747
11
5.26068
21
-3.89748
0
LINE
8
BLACK
6
CONTINUOUS
10
5.26068
20
-3.89748
11
5.26072
21
-3.89748
0
LINE
8
BLACK
6
CONTINUOUS
10
5.26072
20
-3.89748
11
5.26077
21
-3.8975
0
LINE
8
BLACK
6
CONTINUOUS
10
5.26077
20
-3.8975
11
5.26083
21
-3.89751
0
LINE
8
BLACK
6
CONTINUOUS
10
5.26083
20
-3.89751
11
5.26195
21
-3.89789
0
LINE
8
BLACK
6
CONTINUOUS
10
5.26195
20
-3.89789
11
5.26197
21
-3.89789
0
LINE
8
BLACK
6
CONTINUOUS
10
5.26197
20
-3.89789
11
5.26199
21
-3.8979
0
LINE
8
BLACK
6
CONTINUOUS
10
5.26199
20
-3.8979
11
5.26202
21
-3.89791
0
LINE
8
BLACK
6
CONTINUOUS
10
5.26202
20
-3.89791
11
5.26208
21
-3.89794
0
LINE
8
BLACK
6
CONTINUOUS
10
5.26208
20
-3.89794
11
5.26214
21
-3.89797
0
LINE
8
BLACK
6
CONTINUOUS
10
5.26214
20
-3.89797
11
5.26216
21
-3.89799
0
LINE
8
BLACK
6
CONTINUOUS
10
5.26216
20
-3.89799
11
5.26219
21
-3.898
0
LINE
8
BLACK
6
CONTINUOUS
10
5.26219
20
-3.898
11
5.26224
21
-3.89804
0
LINE
8
BLACK
6
CONTINUOUS
10
5.26224
20
-3.89804
11
5.2623
21
-3.89808
0
LINE
8
BLACK
6
CONTINUOUS
10
5.2623
20
-3.89808
11
5.26232
21
-3.8981
0
LINE
8
BLACK
6
CONTINUOUS
10
5.26232
20
-3.8981
11
5.26234
21
-3.89812
0
LINE
8
BLACK
6
CONTINUOUS
10
5.26234
20
-3.89812
11
5.26271
21
-3.8985
0
LINE
8
BLACK
6
CONTINUOUS
10
5.26271
20
-3.8985
11
5.26272
21
-3.89851
0
LINE
8
BLACK
6
CONTINUOUS
10
5.26272
20
-3.89851
11
5.26284
21
-3.89866
0
LINE
8
BLACK
6
CONTINUOUS
10
5.26284
20
-3.89866
11
5.26293
21
-3.89883
0
LINE
8
BLACK
6
CONTINUOUS
10
5.26293
20
-3.89883
11
5.26298
21
-3.89901
0
LINE
8
BLACK
6
CONTINUOUS
10
5.26298
20
-3.89901
11
5.263
21
-3.8992
0
LINE
8
BLACK
6
CONTINUOUS
10
5.263
20
-3.8992
11
5.26298
21
-3.8994
0
LINE
8
BLACK
6
CONTINUOUS
10
5.26298
20
-3.8994
11
5.26292
21
-3.89958
0
LINE
8
BLACK
6
CONTINUOUS
10
5.26292
20
-3.89958
11
5.26283
21
-3.89975
0
LINE
8
BLACK
6
CONTINUOUS
10
5.26283
20
-3.89975
11
5.26271
21
-3.89989
0
LINE
8
BLACK
6
CONTINUOUS
10
5.26271
20
-3.89989
11
5.26256
21
-3.90002
0
LINE
8
BLACK
6
CONTINUOUS
10
5.26256
20
-3.90002
11
5.26239
21
-3.90011
0
LINE
8
BLACK
6
CONTINUOUS
10
5.26239
20
-3.90011
11
5.26221
21
-3.90016
0
LINE
8
BLACK
6
CONTINUOUS
10
5.26221
20
-3.90016
11
5.26201
21
-3.90018
0
LINE
8
BLACK
6
CONTINUOUS
10
5.26201
20
-3.90018
11
5.26182
21
-3.90016
0
LINE
8
BLACK
6
CONTINUOUS
10
5.26182
20
-3.90016
11
5.26164
21
-3.9001
0
LINE
8
BLACK
6
CONTINUOUS
10
5.26164
20
-3.9001
11
5.26147
21
-3.90001
0
LINE
8
BLACK
6
CONTINUOUS
10
5.26147
20
-3.90001
11
5.26132
21
-3.89989
0
LINE
8
BLACK
6
CONTINUOUS
10
5.26132
20
-3.89989
11
5.26111
21
-3.89968
0
LINE
8
BLACK
6
CONTINUOUS
10
5.26111
20
-3.89968
11
5.26036
21
-3.89943
0
LINE
8
BLACK
6
CONTINUOUS
10
5.26036
20
-3.89943
11
5.25993
21
-3.89943
0
LINE
8
BLACK
6
CONTINUOUS
10
5.25993
20
-3.89943
11
5.25917
21
-3.89968
0
LINE
8
BLACK
6
CONTINUOUS
10
5.25917
20
-3.89968
11
5.2587
21
-3.90015
0
LINE
8
BLACK
6
CONTINUOUS
10
5.2587
20
-3.90015
11
5.25845
21
-3.90066
0
LINE
8
BLACK
6
CONTINUOUS
10
5.25845
20
-3.90066
11
5.25813
21
-3.90194
0
LINE
8
BLACK
6
CONTINUOUS
10
5.25813
20
-3.90194
11
5.25813
21
-3.90282
0
LINE
8
BLACK
6
CONTINUOUS
10
5.25813
20
-3.90282
11
5.25845
21
-3.9041
0
LINE
8
BLACK
6
CONTINUOUS
10
5.25845
20
-3.9041
11
5.2587
21
-3.90461
0
LINE
8
BLACK
6
CONTINUOUS
10
5.2587
20
-3.90461
11
5.25917
21
-3.90508
0
LINE
8
BLACK
6
CONTINUOUS
10
5.25917
20
-3.90508
11
5.25993
21
-3.90533
0
LINE
8
BLACK
6
CONTINUOUS
10
5.25993
20
-3.90533
11
5.26036
21
-3.90533
0
LINE
8
BLACK
6
CONTINUOUS
10
5.26036
20
-3.90533
11
5.26111
21
-3.90508
0
LINE
8
BLACK
6
CONTINUOUS
10
5.26111
20
-3.90508
11
5.26132
21
-3.90487
0
LINE
8
BLACK
6
CONTINUOUS
10
5.26132
20
-3.90487
11
5.26133
21
-3.90486
0
LINE
8
BLACK
6
CONTINUOUS
10
5.26133
20
-3.90486
11
5.26148
21
-3.90474
0
LINE
8
BLACK
6
CONTINUOUS
10
5.26148
20
-3.90474
11
5.26165
21
-3.90465
0
LINE
8
BLACK
6
CONTINUOUS
10
5.26165
20
-3.90465
11
5.26184
21
-3.9046
0
LINE
8
BLACK
6
CONTINUOUS
10
5.26184
20
-3.9046
11
5.26203
21
-3.90458
0
LINE
8
BLACK
6
CONTINUOUS
10
5.26203
20
-3.90458
11
5.26222
21
-3.9046
0
LINE
8
BLACK
6
CONTINUOUS
10
5.26222
20
-3.9046
11
5.2624
21
-3.90466
0
LINE
8
BLACK
6
CONTINUOUS
10
5.2624
20
-3.90466
11
5.26257
21
-3.90475
0
LINE
8
BLACK
6
CONTINUOUS
10
5.26257
20
-3.90475
11
5.26272
21
-3.90488
0
LINE
8
BLACK
6
CONTINUOUS
10
5.26272
20
-3.90488
11
5.26284
21
-3.90503
0
LINE
8
BLACK
6
CONTINUOUS
10
5.26284
20
-3.90503
11
5.26293
21
-3.9052
0
LINE
8
BLACK
6
CONTINUOUS
10
5.26293
20
-3.9052
11
5.26298
21
-3.90538
0
LINE
8
BLACK
6
CONTINUOUS
10
5.26298
20
-3.90538
11
5.263
21
-3.90557
0
LINE
8
BLACK
6
CONTINUOUS
10
5.263
20
-3.90557
11
5.26298
21
-3.90576
0
LINE
8
BLACK
6
CONTINUOUS
10
5.26298
20
-3.90576
11
5.26293
21
-3.90595
0
LINE
8
BLACK
6
CONTINUOUS
10
5.26293
20
-3.90595
11
5.26284
21
-3.90612
0
LINE
8
BLACK
6
CONTINUOUS
10
5.26284
20
-3.90612
11
5.26271
21
-3.90626
0
LINE
8
BLACK
6
CONTINUOUS
10
5.26271
20
-3.90626
11
5.26234
21
-3.90664
0
LINE
8
BLACK
6
CONTINUOUS
10
5.26234
20
-3.90664
11
5.26233
21
-3.90665
0
LINE
8
BLACK
6
CONTINUOUS
10
5.26233
20
-3.90665
11
5.26231
21
-3.90667
0
LINE
8
BLACK
6
CONTINUOUS
10
5.26231
20
-3.90667
11
5.26229
21
-3.90669
0
LINE
8
BLACK
6
CONTINUOUS
10
5.26229
20
-3.90669
11
5.26223
21
-3.90673
0
LINE
8
BLACK
6
CONTINUOUS
10
5.26223
20
-3.90673
11
5.26218
21
-3.90677
0
LINE
8
BLACK
6
CONTINUOUS
10
5.26218
20
-3.90677
11
5.26215
21
-3.90678
0
LINE
8
BLACK
6
CONTINUOUS
10
5.26215
20
-3.90678
11
5.26213
21
-3.9068
0
LINE
8
BLACK
6
CONTINUOUS
10
5.26213
20
-3.9068
11
5.26207
21
-3.90683
0
LINE
8
BLACK
6
CONTINUOUS
10
5.26207
20
-3.90683
11
5.26201
21
-3.90686
0
LINE
8
BLACK
6
CONTINUOUS
10
5.26201
20
-3.90686
11
5.26198
21
-3.90686
0
LINE
8
BLACK
6
CONTINUOUS
10
5.26198
20
-3.90686
11
5.26195
21
-3.90688
0
LINE
8
BLACK
6
CONTINUOUS
10
5.26195
20
-3.90688
11
5.26083
21
-3.90725
0
LINE
8
BLACK
6
CONTINUOUS
10
5.26083
20
-3.90725
11
5.26082
21
-3.90726
0
LINE
8
BLACK
6
CONTINUOUS
10
5.26082
20
-3.90726
11
5.26076
21
-3.90727
0
LINE
8
BLACK
6
CONTINUOUS
10
5.26076
20
-3.90727
11
5.26071
21
-3.90728
0
LINE
8
BLACK
6
CONTINUOUS
10
5.26071
20
-3.90728
11
5.26067
21
-3.90729
0
LINE
8
BLACK
6
CONTINUOUS
10
5.26067
20
-3.90729
11
5.26063
21
-3.9073
0
LINE
8
BLACK
6
CONTINUOUS
10
5.26063
20
-3.9073
11
5.26057
21
-3.9073
0
LINE
8
BLACK
6
CONTINUOUS
10
5.26057
20
-3.9073
11
5.26052
21
-3.9073
0
LINE
8
BLACK
6
CONTINUOUS
10
5.26052
20
-3.9073
11
5.25977
21
-3.9073
0
LINE
8
BLACK
6
CONTINUOUS
10
5.25977
20
-3.9073
11
5.25975
21
-3.9073
0
LINE
8
BLACK
6
CONTINUOUS
10
5.25975
20
-3.9073
11
5.2597
21
-3.9073
0
LINE
8
BLACK
6
CONTINUOUS
10
5.2597
20
-3.9073
11
5.25964
21
-3.90729
0
LINE
8
BLACK
6
CONTINUOUS
10
5.25964
20
-3.90729
11
5.2596
21
-3.90729
0
LINE
8
BLACK
6
CONTINUOUS
10
5.2596
20
-3.90729
11
5.25956
21
-3.90728
0
LINE
8
BLACK
6
CONTINUOUS
10
5.25956
20
-3.90728
11
5.25951
21
-3.90726
0
LINE
8
BLACK
6
CONTINUOUS
10
5.25951
20
-3.90726
11
5.25946
21
-3.90725
0
LINE
8
BLACK
6
CONTINUOUS
10
5.25946
20
-3.90725
11
5.25833
21
-3.90688
0
LINE
8
BLACK
6
CONTINUOUS
10
5.25833
20
-3.90688
11
5.25832
21
-3.90687
0
LINE
8
BLACK
6
CONTINUOUS
10
5.25832
20
-3.90687
11
5.25829
21
-3.90686
0
LINE
8
BLACK
6
CONTINUOUS
10
5.25829
20
-3.90686
11
5.25826
21
-3.90685
0
LINE
8
BLACK
6
CONTINUOUS
10
5.25826
20
-3.90685
11
5.25821
21
-3.90682
0
LINE
8
BLACK
6
CONTINUOUS
10
5.25821
20
-3.90682
11
5.25814
21
-3.90679
0
LINE
8
BLACK
6
CONTINUOUS
10
5.25814
20
-3.90679
11
5.25812
21
-3.90677
0
LINE
8
BLACK
6
CONTINUOUS
10
5.25812
20
-3.90677
11
5.2581
21
-3.90676
0
LINE
8
BLACK
6
CONTINUOUS
10
5.2581
20
-3.90676
11
5.25804
21
-3.90672
0
LINE
8
BLACK
6
CONTINUOUS
10
5.25804
20
-3.90672
11
5.25799
21
-3.90668
0
LINE
8
BLACK
6
CONTINUOUS
10
5.25799
20
-3.90668
11
5.25797
21
-3.90666
0
LINE
8
BLACK
6
CONTINUOUS
10
5.25797
20
-3.90666
11
5.25795
21
-3.90664
0
LINE
8
BLACK
6
CONTINUOUS
10
5.25795
20
-3.90664
11
5.2572
21
-3.90589
0
LINE
8
BLACK
6
CONTINUOUS
10
5.2572
20
-3.90589
11
5.25719
21
-3.90588
0
LINE
8
BLACK
6
CONTINUOUS
10
5.25719
20
-3.90588
11
5.25715
21
-3.90584
0
LINE
8
BLACK
6
CONTINUOUS
10
5.25715
20
-3.90584
11
5.25711
21
-3.9058
0
LINE
8
BLACK
6
CONTINUOUS
10
5.25711
20
-3.9058
11
5.25709
21
-3.90576
0
LINE
8
BLACK
6
CONTINUOUS
10
5.25709
20
-3.90576
11
5.25707
21
-3.90573
0
LINE
8
BLACK
6
CONTINUOUS
10
5.25707
20
-3.90573
11
5.25704
21
-3.90568
0
LINE
8
BLACK
6
CONTINUOUS
10
5.25704
20
-3.90568
11
5.25701
21
-3.90563
0
LINE
8
BLACK
6
CONTINUOUS
10
5.25701
20
-3.90563
11
5.25664
21
-3.90488
0
LINE
8
BLACK
6
CONTINUOUS
10
5.25664
20
-3.90488
11
5.25663
21
-3.90487
0
LINE
8
BLACK
6
CONTINUOUS
10
5.25663
20
-3.90487
11
5.25663
21
-3.90487
0
LINE
8
BLACK
6
CONTINUOUS
10
5.25663
20
-3.90487
11
5.25663
21
-3.90486
0
LINE
8
BLACK
6
CONTINUOUS
10
5.25663
20
-3.90486
11
5.2566
21
-3.90478
0
LINE
8
BLACK
6
CONTINUOUS
10
5.2566
20
-3.90478
11
5.25657
21
-3.90469
0
LINE
8
BLACK
6
CONTINUOUS
10
5.25657
20
-3.90469
11
5.25656
21
-3.90469
0
LINE
8
BLACK
6
CONTINUOUS
10
5.25656
20
-3.90469
11
5.25656
21
-3.90468
0
LINE
8
BLACK
6
CONTINUOUS
10
5.25656
20
-3.90468
11
5.25619
21
-3.90318
0
LINE
8
BLACK
6
CONTINUOUS
10
5.25619
20
-3.90318
11
5.25618
21
-3.90317
0
LINE
8
BLACK
6
CONTINUOUS
10
5.25618
20
-3.90317
11
5.25618
21
-3.90315
0
LINE
8
BLACK
6
CONTINUOUS
10
5.25618
20
-3.90315
11
5.25618
21
-3.90313
0
LINE
8
BLACK
6
CONTINUOUS
10
5.25618
20
-3.90313
11
5.25617
21
-3.90306
0
LINE
8
BLACK
6
CONTINUOUS
10
5.25617
20
-3.90306
11
5.25616
21
-3.90298
0
LINE
8
BLACK
6
CONTINUOUS
10
5.25616
20
-3.90298
11
5.25616
21
-3.90296
0
LINE
8
BLACK
6
CONTINUOUS
10
5.25616
20
-3.90296
11
5.25616
21
-3.90294
0
LINE
8
BLACK
6
CONTINUOUS
10
5.25616
20
-3.90294
11
5.25616
21
-3.90182
0
LINE
8
BLACK
6
CONTINUOUS
10
5.25616
20
-3.90182
11
5.25616
21
-3.9018
0
LINE
8
BLACK
6
CONTINUOUS
10
5.25616
20
-3.9018
11
5.25616
21
-3.90179
0
LINE
8
BLACK
6
CONTINUOUS
10
5.25616
20
-3.90179
11
5.25616
21
-3.90177
0
LINE
8
BLACK
6
CONTINUOUS
10
5.25616
20
-3.90177
11
5.25617
21
-3.90169
0
LINE
8
BLACK
6
CONTINUOUS
10
5.25617
20
-3.90169
11
5.25618
21
-3.90161
0
LINE
8
BLACK
6
CONTINUOUS
10
5.25618
20
-3.90161
11
5.25619
21
-3.9016
0
LINE
8
BLACK
6
CONTINUOUS
10
5.25619
20
-3.9016
11
5.25619
21
-3.90158
0
LINE
8
BLACK
6
CONTINUOUS
10
5.25619
20
-3.90158
11
5.25656
21
-3.90008
0
LINE
8
BLACK
6
CONTINUOUS
10
5.25656
20
-3.90008
11
5.25657
21
-3.90007
0
LINE
8
BLACK
6
CONTINUOUS
10
5.25657
20
-3.90007
11
5.25657
21
-3.90006
0
LINE
8
BLACK
6
CONTINUOUS
10
5.25657
20
-3.90006
11
5.25657
21
-3.90006
0
LINE
8
BLACK
6
CONTINUOUS
10
5.25657
20
-3.90006
11
5.2566
21
-3.89997
0
LINE
8
BLACK
6
CONTINUOUS
10
5.2566
20
-3.89997
11
5.25663
21
-3.89989
0
LINE
8
BLACK
6
CONTINUOUS
10
5.25663
20
-3.89989
11
5.25664
21
-3.89988
0
LINE
8
BLACK
6
CONTINUOUS
10
5.25664
20
-3.89988
11
5.25664
21
-3.89988
0
LINE
8
BLACK
6
CONTINUOUS
10
5.25664
20
-3.89988
11
5.25701
21
-3.89913
0
LINE
8
BLACK
6
CONTINUOUS
10
5.25701
20
-3.89913
11
5.25702
21
-3.89912
0
LINE
8
BLACK
6
CONTINUOUS
10
5.25702
20
-3.89912
11
5.25705
21
-3.89907
0
LINE
8
BLACK
6
CONTINUOUS
10
5.25705
20
-3.89907
11
5.25707
21
-3.89902
0
LINE
8
BLACK
6
CONTINUOUS
10
5.25707
20
-3.89902
11
5.2571
21
-3.89899
0
LINE
8
BLACK
6
CONTINUOUS
10
5.2571
20
-3.89899
11
5.25712
21
-3.89896
0
LINE
8
BLACK
6
CONTINUOUS
10
5.25712
20
-3.89896
11
5.25716
21
-3.89892
0
LINE
8
BLACK
6
CONTINUOUS
10
5.25716
20
-3.89892
11
5.2572
21
-3.89887
0
LINE
8
BLACK
6
CONTINUOUS
10
5.2572
20
-3.89887
11
5.25795
21
-3.89812
0
LINE
8
BLACK
6
CONTINUOUS
10
5.25795
20
-3.89812
11
5.25796
21
-3.89811
0
LINE
8
BLACK
6
CONTINUOUS
10
5.25796
20
-3.89811
11
5.25798
21
-3.8981
0
LINE
8
BLACK
6
CONTINUOUS
10
5.25798
20
-3.8981
11
5.258
21
-3.89807
0
LINE
8
BLACK
6
CONTINUOUS
10
5.258
20
-3.89807
11
5.25805
21
-3.89804
0
LINE
8
BLACK
6
CONTINUOUS
10
5.25805
20
-3.89804
11
5.25811
21
-3.89799
0
LINE
8
BLACK
6
CONTINUOUS
10
5.25811
20
-3.89799
11
5.25813
21
-3.89798
0
LINE
8
BLACK
6
CONTINUOUS
10
5.25813
20
-3.89798
11
5.25816
21
-3.89796
0
LINE
8
BLACK
6
CONTINUOUS
10
5.25816
20
-3.89796
11
5.25822
21
-3.89794
0
LINE
8
BLACK
6
CONTINUOUS
10
5.25822
20
-3.89794
11
5.25828
21
-3.8979
0
LINE
8
BLACK
6
CONTINUOUS
10
5.25828
20
-3.8979
11
5.25831
21
-3.8979
0
LINE
8
BLACK
6
CONTINUOUS
10
5.25831
20
-3.8979
11
5.25833
21
-3.89789
0
LINE
8
BLACK
6
CONTINUOUS
10
5.25833
20
-3.89789
11
5.25946
21
-3.89751
0
LINE
8
BLACK
6
CONTINUOUS
10
5.25946
20
-3.89751
11
5.25947
21
-3.89751
0
LINE
8
BLACK
6
CONTINUOUS
10
5.25947
20
-3.89751
11
5.25952
21
-3.89749
0
LINE
8
BLACK
6
CONTINUOUS
10
5.25952
20
-3.89749
11
5.25958
21
-3.89748
0
LINE
8
BLACK
6
CONTINUOUS
10
5.25958
20
-3.89748
11
5.25962
21
-3.89747
0
LINE
8
BLACK
6
CONTINUOUS
10
5.25962
20
-3.89747
11
5.25966
21
-3.89747
0
LINE
8
BLACK
6
CONTINUOUS
10
5.25966
20
-3.89747
11
5.25971
21
-3.89747
0
LINE
8
BLACK
6
CONTINUOUS
10
5.25971
20
-3.89747
11
5.25977
21
-3.89746
0
LINE
8
BLACK
6
CONTINUOUS
10
5.25977
20
-3.89746
11
5.26052
21
-3.89746
0
LINE
8
BLACK
6
CONTINUOUS
10
5.26052
20
-3.89746
11
5.26053
21
-3.89746
0
LINE
8
BLACK
6
CONTINUOUS
10
5.26737
20
-3.89747
11
5.26746
21
-3.89748
0
LINE
8
BLACK
6
CONTINUOUS
10
5.26746
20
-3.89748
11
5.26747
21
-3.89748
0
LINE
8
BLACK
6
CONTINUOUS
10
5.26747
20
-3.89748
11
5.26747
21
-3.89748
0
LINE
8
BLACK
6
CONTINUOUS
10
5.26747
20
-3.89748
11
5.26755
21
-3.89751
0
LINE
8
BLACK
6
CONTINUOUS
10
5.26755
20
-3.89751
11
5.26765
21
-3.89754
0
LINE
8
BLACK
6
CONTINUOUS
10
5.26765
20
-3.89754
11
5.26765
21
-3.89754
0
LINE
8
BLACK
6
CONTINUOUS
10
5.26765
20
-3.89754
11
5.26765
21
-3.89754
0
LINE
8
BLACK
6
CONTINUOUS
10
5.26765
20
-3.89754
11
5.26772
21
-3.89757
0
LINE
8
BLACK
6
CONTINUOUS
10
5.26772
20
-3.89757
11
5.26782
21
-3.89763
0
LINE
8
BLACK
6
CONTINUOUS
10
5.26782
20
-3.89763
11
5.26782
21
-3.89763
0
LINE
8
BLACK
6
CONTINUOUS
10
5.26782
20
-3.89763
11
5.26782
21
-3.89763
0
LINE
8
BLACK
6
CONTINUOUS
10
5.26782
20
-3.89763
11
5.26787
21
-3.89767
0
LINE
8
BLACK
6
CONTINUOUS
10
5.26787
20
-3.89767
11
5.26796
21
-3.89775
0
LINE
8
BLACK
6
CONTINUOUS
10
5.26796
20
-3.89775
11
5.26797
21
-3.89775
0
LINE
8
BLACK
6
CONTINUOUS
10
5.26797
20
-3.89775
11
5.26797
21
-3.89775
0
LINE
8
BLACK
6
CONTINUOUS
10
5.26797
20
-3.89775
11
5.26802
21
-3.89782
0
LINE
8
BLACK
6
CONTINUOUS
10
5.26802
20
-3.89782
11
5.26809
21
-3.8979
0
LINE
8
BLACK
6
CONTINUOUS
10
5.26809
20
-3.8979
11
5.26809
21
-3.8979
0
LINE
8
BLACK
6
CONTINUOUS
10
5.26809
20
-3.8979
11
5.26809
21
-3.8979
0
LINE
8
BLACK
6
CONTINUOUS
10
5.26809
20
-3.8979
11
5.26813
21
-3.89798
0
LINE
8
BLACK
6
CONTINUOUS
10
5.26813
20
-3.89798
11
5.26818
21
-3.89807
0
LINE
8
BLACK
6
CONTINUOUS
10
5.26818
20
-3.89807
11
5.26818
21
-3.89807
0
LINE
8
BLACK
6
CONTINUOUS
10
5.26818
20
-3.89807
11
5.26818
21
-3.89807
0
LINE
8
BLACK
6
CONTINUOUS
10
5.26818
20
-3.89807
11
5.2682
21
-3.89815
0
LINE
8
BLACK
6
CONTINUOUS
10
5.2682
20
-3.89815
11
5.26823
21
-3.89825
0
LINE
8
BLACK
6
CONTINUOUS
10
5.26823
20
-3.89825
11
5.26823
21
-3.89825
0
LINE
8
BLACK
6
CONTINUOUS
10
5.26823
20
-3.89825
11
5.26823
21
-3.89825
0
LINE
8
BLACK
6
CONTINUOUS
10
5.26823
20
-3.89825
11
5.26824
21
-3.89834
0
LINE
8
BLACK
6
CONTINUOUS
10
5.26824
20
-3.89834
11
5.26825
21
-3.89844
0
LINE
8
BLACK
6
CONTINUOUS
10
5.26825
20
-3.89844
11
5.26825
21
-3.90533
0
LINE
8
BLACK
6
CONTINUOUS
10
5.26825
20
-3.90533
11
5.26952
21
-3.90533
0
LINE
8
BLACK
6
CONTINUOUS
10
5.26952
20
-3.90533
11
5.26953
21
-3.90533
0
LINE
8
BLACK
6
CONTINUOUS
10
5.26953
20
-3.90533
11
5.26972
21
-3.90536
0
LINE
8
BLACK
6
CONTINUOUS
10
5.26972
20
-3.90536
11
5.2699
21
-3.90541
0
LINE
8
BLACK
6
CONTINUOUS
10
5.2699
20
-3.90541
11
5.27007
21
-3.90551
0
LINE
8
BLACK
6
CONTINUOUS
10
5.27007
20
-3.90551
11
5.27022
21
-3.90563
0
LINE
8
BLACK
6
CONTINUOUS
10
5.27022
20
-3.90563
11
5.27034
21
-3.90578
0
LINE
8
BLACK
6
CONTINUOUS
10
5.27034
20
-3.90578
11
5.27043
21
-3.90595
0
LINE
8
BLACK
6
CONTINUOUS
10
5.27043
20
-3.90595
11
5.27048
21
-3.90613
0
LINE
8
BLACK
6
CONTINUOUS
10
5.27048
20
-3.90613
11
5.2705
21
-3.90632
0
LINE
8
BLACK
6
CONTINUOUS
10
5.2705
20
-3.90632
11
5.27048
21
-3.90652
0
LINE
8
BLACK
6
CONTINUOUS
10
5.27048
20
-3.90652
11
5.27042
21
-3.9067
0
LINE
8
BLACK
6
CONTINUOUS
10
5.27042
20
-3.9067
11
5.27033
21
-3.90687
0
LINE
8
BLACK
6
CONTINUOUS
10
5.27033
20
-3.90687
11
5.27021
21
-3.90702
0
LINE
8
BLACK
6
CONTINUOUS
10
5.27021
20
-3.90702
11
5.27006
21
-3.90714
0
LINE
8
BLACK
6
CONTINUOUS
10
5.27006
20
-3.90714
11
5.26989
21
-3.90723
0
LINE
8
BLACK
6
CONTINUOUS
10
5.26989
20
-3.90723
11
5.26971
21
-3.90728
0
LINE
8
BLACK
6
CONTINUOUS
10
5.26971
20
-3.90728
11
5.26952
21
-3.9073
0
LINE
8
BLACK
6
CONTINUOUS
10
5.26952
20
-3.9073
11
5.26502
21
-3.9073
0
LINE
8
BLACK
6
CONTINUOUS
10
5.26502
20
-3.9073
11
5.265
21
-3.9073
0
LINE
8
BLACK
6
CONTINUOUS
10
5.265
20
-3.9073
11
5.26481
21
-3.90728
0
LINE
8
BLACK
6
CONTINUOUS
10
5.26481
20
-3.90728
11
5.26463
21
-3.90722
0
LINE
8
BLACK
6
CONTINUOUS
10
5.26463
20
-3.90722
11
5.26446
21
-3.90713
0
LINE
8
BLACK
6
CONTINUOUS
10
5.26446
20
-3.90713
11
5.26431
21
-3.90701
0
LINE
8
BLACK
6
CONTINUOUS
10
5.26431
20
-3.90701
11
5.26419
21
-3.90686
0
LINE
8
BLACK
6
CONTINUOUS
10
5.26419
20
-3.90686
11
5.2641
21
-3.90669
0
LINE
8
BLACK
6
CONTINUOUS
10
5.2641
20
-3.90669
11
5.26405
21
-3.9065
0
LINE
8
BLACK
6
CONTINUOUS
10
5.26405
20
-3.9065
11
5.26403
21
-3.90631
0
LINE
8
BLACK
6
CONTINUOUS
10
5.26403
20
-3.90631
11
5.26405
21
-3.90612
0
LINE
8
BLACK
6
CONTINUOUS
10
5.26405
20
-3.90612
11
5.26411
21
-3.90594
0
LINE
8
BLACK
6
CONTINUOUS
10
5.26411
20
-3.90594
11
5.2642
21
-3.90577
0
LINE
8
BLACK
6
CONTINUOUS
10
5.2642
20
-3.90577
11
5.26432
21
-3.90562
0
LINE
8
BLACK
6
CONTINUOUS
10
5.26432
20
-3.90562
11
5.26447
21
-3.9055
0
LINE
8
BLACK
6
CONTINUOUS
10
5.26447
20
-3.9055
11
5.26464
21
-3.90541
0
LINE
8
BLACK
6
CONTINUOUS
10
5.26464
20
-3.90541
11
5.26483
21
-3.90535
0
LINE
8
BLACK
6
CONTINUOUS
10
5.26483
20
-3.90535
11
5.26502
21
-3.90533
0
LINE
8
BLACK
6
CONTINUOUS
10
5.26502
20
-3.90533
11
5.26628
21
-3.90533
0
LINE
8
BLACK
6
CONTINUOUS
10
5.26628
20
-3.90533
11
5.26628
21
-3.90115
0
LINE
8
BLACK
6
CONTINUOUS
10
5.26628
20
-3.90115
11
5.26625
21
-3.90117
0
LINE
8
BLACK
6
CONTINUOUS
10
5.26625
20
-3.90117
11
5.26621
21
-3.9012
0
LINE
8
BLACK
6
CONTINUOUS
10
5.26621
20
-3.9012
11
5.26546
21
-3.90157
0
LINE
8
BLACK
6
CONTINUOUS
10
5.26546
20
-3.90157
11
5.26544
21
-3.90158
0
LINE
8
BLACK
6
CONTINUOUS
10
5.26544
20
-3.90158
11
5.26526
21
-3.90165
0
LINE
8
BLACK
6
CONTINUOUS
10
5.26526
20
-3.90165
11
5.26507
21
-3.90168
0
LINE
8
BLACK
6
CONTINUOUS
10
5.26507
20
-3.90168
11
5.26488
21
-3.90167
0
LINE
8
BLACK
6
CONTINUOUS
10
5.26488
20
-3.90167
11
5.2647
21
-3.90162
0
LINE
8
BLACK
6
CONTINUOUS
10
5.2647
20
-3.90162
11
5.26452
21
-3.90154
0
LINE
8
BLACK
6
CONTINUOUS
10
5.26452
20
-3.90154
11
5.26437
21
-3.90143
0
LINE
8
BLACK
6
CONTINUOUS
10
5.26437
20
-3.90143
11
5.26423
21
-3.90129
0
LINE
8
BLACK
6
CONTINUOUS
10
5.26423
20
-3.90129
11
5.26413
21
-3.90113
0
LINE
8
BLACK
6
CONTINUOUS
10
5.26413
20
-3.90113
11
5.26407
21
-3.90095
0
LINE
8
BLACK
6
CONTINUOUS
10
5.26407
20
-3.90095
11
5.26403
21
-3.90076
0
LINE
8
BLACK
6
CONTINUOUS
10
5.26403
20
-3.90076
11
5.26404
21
-3.90057
0
LINE
8
BLACK
6
CONTINUOUS
10
5.26404
20
-3.90057
11
5.26408
21
-3.90038
0
LINE
8
BLACK
6
CONTINUOUS
10
5.26408
20
-3.90038
11
5.26416
21
-3.9002
0
LINE
8
BLACK
6
CONTINUOUS
10
5.26416
20
-3.9002
11
5.26427
21
-3.90005
0
LINE
8
BLACK
6
CONTINUOUS
10
5.26427
20
-3.90005
11
5.26441
21
-3.89992
0
LINE
8
BLACK
6
CONTINUOUS
10
5.26441
20
-3.89992
11
5.26458
21
-3.89981
0
LINE
8
BLACK
6
CONTINUOUS
10
5.26458
20
-3.89981
11
5.26518
21
-3.89951
0
LINE
8
BLACK
6
CONTINUOUS
10
5.26518
20
-3.89951
11
5.26575
21
-3.89894
0
LINE
8
BLACK
6
CONTINUOUS
10
5.26575
20
-3.89894
11
5.26645
21
-3.8979
0
LINE
8
BLACK
6
CONTINUOUS
10
5.26645
20
-3.8979
11
5.26646
21
-3.89789
0
LINE
8
BLACK
6
CONTINUOUS
10
5.26646
20
-3.89789
11
5.26653
21
-3.8978
0
LINE
8
BLACK
6
CONTINUOUS
10
5.26653
20
-3.8978
11
5.26658
21
-3.89774
0
LINE
8
BLACK
6
CONTINUOUS
10
5.26658
20
-3.89774
11
5.26658
21
-3.89774
0
LINE
8
BLACK
6
CONTINUOUS
10
5.26658
20
-3.89774
11
5.26658
21
-3.89774
0
LINE
8
BLACK
6
CONTINUOUS
10
5.26658
20
-3.89774
11
5.26666
21
-3.89767
0
LINE
8
BLACK
6
CONTINUOUS
10
5.26666
20
-3.89767
11
5.26673
21
-3.89762
0
LINE
8
BLACK
6
CONTINUOUS
10
5.26673
20
-3.89762
11
5.26673
21
-3.89762
0
LINE
8
BLACK
6
CONTINUOUS
10
5.26673
20
-3.89762
11
5.26673
21
-3.89762
0
LINE
8
BLACK
6
CONTINUOUS
10
5.26673
20
-3.89762
11
5.26681
21
-3.89758
0
LINE
8
BLACK
6
CONTINUOUS
10
5.26681
20
-3.89758
11
5.2669
21
-3.89753
0
LINE
8
BLACK
6
CONTINUOUS
10
5.2669
20
-3.89753
11
5.2669
21
-3.89753
0
LINE
8
BLACK
6
CONTINUOUS
10
5.2669
20
-3.89753
11
5.2669
21
-3.89753
0
LINE
8
BLACK
6
CONTINUOUS
10
5.2669
20
-3.89753
11
5.26699
21
-3.8975
0
LINE
8
BLACK
6
CONTINUOUS
10
5.26699
20
-3.8975
11
5.26708
21
-3.89748
0
LINE
8
BLACK
6
CONTINUOUS
10
5.26708
20
-3.89748
11
5.26708
21
-3.89748
0
LINE
8
BLACK
6
CONTINUOUS
10
5.26708
20
-3.89748
11
5.26708
21
-3.89748
0
LINE
8
BLACK
6
CONTINUOUS
10
5.26708
20
-3.89748
11
5.26719
21
-3.89747
0
LINE
8
BLACK
6
CONTINUOUS
10
5.26719
20
-3.89747
11
5.26727
21
-3.89746
0
LINE
8
BLACK
6
CONTINUOUS
10
5.26727
20
-3.89746
11
5.26727
21
-3.89746
0
LINE
8
BLACK
6
CONTINUOUS
10
5.26727
20
-3.89746
11
5.26727
21
-3.89746
0
LINE
8
BLACK
6
CONTINUOUS
10
5.26727
20
-3.89746
11
5.26737
21
-3.89747
0
LINE
8
BLACK
6
CONTINUOUS
10
5.25397
20
-3.89748
11
5.25415
21
-3.89754
0
LINE
8
BLACK
6
CONTINUOUS
10
5.25415
20
-3.89754
11
5.25432
21
-3.89763
0
LINE
8
BLACK
6
CONTINUOUS
10
5.25432
20
-3.89763
11
5.25447
21
-3.89775
0
LINE
8
BLACK
6
CONTINUOUS
10
5.25447
20
-3.89775
11
5.25459
21
-3.8979
0
LINE
8
BLACK
6
CONTINUOUS
10
5.25459
20
-3.8979
11
5.25468
21
-3.89807
0
LINE
8
BLACK
6
CONTINUOUS
10
5.25468
20
-3.89807
11
5.25473
21
-3.89825
0
LINE
8
BLACK
6
CONTINUOUS
10
5.25473
20
-3.89825
11
5.25475
21
-3.89844
0
LINE
8
BLACK
6
CONTINUOUS
10
5.25475
20
-3.89844
11
5.25475
21
-3.90632
0
LINE
8
BLACK
6
CONTINUOUS
10
5.25475
20
-3.90632
11
5.25475
21
-3.90633
0
LINE
8
BLACK
6
CONTINUOUS
10
5.25475
20
-3.90633
11
5.25473
21
-3.90652
0
LINE
8
BLACK
6
CONTINUOUS
10
5.25473
20
-3.90652
11
5.25467
21
-3.90671
0
LINE
8
BLACK
6
CONTINUOUS
10
5.25467
20
-3.90671
11
5.25458
21
-3.90687
0
LINE
8
BLACK
6
CONTINUOUS
10
5.25458
20
-3.90687
11
5.25446
21
-3.90702
0
LINE
8
BLACK
6
CONTINUOUS
10
5.25446
20
-3.90702
11
5.25431
21
-3.90714
0
LINE
8
BLACK
6
CONTINUOUS
10
5.25431
20
-3.90714
11
5.25414
21
-3.90723
0
LINE
8
BLACK
6
CONTINUOUS
10
5.25414
20
-3.90723
11
5.25395
21
-3.90728
0
LINE
8
BLACK
6
CONTINUOUS
10
5.25395
20
-3.90728
11
5.25376
21
-3.9073
0
LINE
8
BLACK
6
CONTINUOUS
10
5.25376
20
-3.9073
11
5.25357
21
-3.90728
0
LINE
8
BLACK
6
CONTINUOUS
10
5.25357
20
-3.90728
11
5.25339
21
-3.90723
0
LINE
8
BLACK
6
CONTINUOUS
10
5.25339
20
-3.90723
11
5.25322
21
-3.90713
0
LINE
8
BLACK
6
CONTINUOUS
10
5.25322
20
-3.90713
11
5.25307
21
-3.90701
0
LINE
8
BLACK
6
CONTINUOUS
10
5.25307
20
-3.90701
11
5.25295
21
-3.90686
0
LINE
8
BLACK
6
CONTINUOUS
10
5.25295
20
-3.90686
11
5.25286
21
-3.90669
0
LINE
8
BLACK
6
CONTINUOUS
10
5.25286
20
-3.90669
11
5.2528
21
-3.90651
0
LINE
8
BLACK
6
CONTINUOUS
10
5.2528
20
-3.90651
11
5.25278
21
-3.90632
0
LINE
8
BLACK
6
CONTINUOUS
10
5.25278
20
-3.90632
11
5.25278
21
-3.89844
0
LINE
8
BLACK
6
CONTINUOUS
10
5.25278
20
-3.89844
11
5.25278
21
-3.89843
0
LINE
8
BLACK
6
CONTINUOUS
10
5.25278
20
-3.89843
11
5.25281
21
-3.89824
0
LINE
8
BLACK
6
CONTINUOUS
10
5.25281
20
-3.89824
11
5.25286
21
-3.89806
0
LINE
8
BLACK
6
CONTINUOUS
10
5.25286
20
-3.89806
11
5.25296
21
-3.89789
0
LINE
8
BLACK
6
CONTINUOUS
10
5.25296
20
-3.89789
11
5.25308
21
-3.89774
0
LINE
8
BLACK
6
CONTINUOUS
10
5.25308
20
-3.89774
11
5.25323
21
-3.89762
0
LINE
8
BLACK
6
CONTINUOUS
10
5.25323
20
-3.89762
11
5.2534
21
-3.89753
0
LINE
8
BLACK
6
CONTINUOUS
10
5.2534
20
-3.89753
11
5.25358
21
-3.89748
0
LINE
8
BLACK
6
CONTINUOUS
10
5.25358
20
-3.89748
11
5.25378
21
-3.89746
0
LINE
8
BLACK
6
CONTINUOUS
10
5.25378
20
-3.89746
11
5.25397
21
-3.89748
0
LINE
8
BLACK
6
CONTINUOUS
10
5.24103
20
-3.89746
11
5.24109
21
-3.89746
0
LINE
8
BLACK
6
CONTINUOUS
10
5.24109
20
-3.89746
11
5.24112
21
-3.89747
0
LINE
8
BLACK
6
CONTINUOUS
10
5.24112
20
-3.89747
11
5.24115
21
-3.89747
0
LINE
8
BLACK
6
CONTINUOUS
10
5.24115
20
-3.89747
11
5.24122
21
-3.89748
0
LINE
8
BLACK
6
CONTINUOUS
10
5.24122
20
-3.89748
11
5.24128
21
-3.8975
0
LINE
8
BLACK
6
CONTINUOUS
10
5.24128
20
-3.8975
11
5.24131
21
-3.89751
0
LINE
8
BLACK
6
CONTINUOUS
10
5.24131
20
-3.89751
11
5.24134
21
-3.89751
0
LINE
8
BLACK
6
CONTINUOUS
10
5.24134
20
-3.89751
11
5.2414
21
-3.89754
0
LINE
8
BLACK
6
CONTINUOUS
10
5.2414
20
-3.89754
11
5.24146
21
-3.89757
0
LINE
8
BLACK
6
CONTINUOUS
10
5.24146
20
-3.89757
11
5.24149
21
-3.89758
0
LINE
8
BLACK
6
CONTINUOUS
10
5.24149
20
-3.89758
11
5.24151
21
-3.89759
0
LINE
8
BLACK
6
CONTINUOUS
10
5.24151
20
-3.89759
11
5.24157
21
-3.89763
0
LINE
8
BLACK
6
CONTINUOUS
10
5.24157
20
-3.89763
11
5.24163
21
-3.89767
0
LINE
8
BLACK
6
CONTINUOUS
10
5.24163
20
-3.89767
11
5.24165
21
-3.89769
0
LINE
8
BLACK
6
CONTINUOUS
10
5.24165
20
-3.89769
11
5.24167
21
-3.8977
0
LINE
8
BLACK
6
CONTINUOUS
10
5.24167
20
-3.8977
11
5.24172
21
-3.89775
0
LINE
8
BLACK
6
CONTINUOUS
10
5.24172
20
-3.89775
11
5.24176
21
-3.8978
0
LINE
8
BLACK
6
CONTINUOUS
10
5.24176
20
-3.8978
11
5.24178
21
-3.89782
0
LINE
8
BLACK
6
CONTINUOUS
10
5.24178
20
-3.89782
11
5.2418
21
-3.89784
0
LINE
8
BLACK
6
CONTINUOUS
10
5.2418
20
-3.89784
11
5.24184
21
-3.8979
0
LINE
8
BLACK
6
CONTINUOUS
10
5.24184
20
-3.8979
11
5.24188
21
-3.89796
0
LINE
8
BLACK
6
CONTINUOUS
10
5.24188
20
-3.89796
11
5.24189
21
-3.89798
0
LINE
8
BLACK
6
CONTINUOUS
10
5.24189
20
-3.89798
11
5.2419
21
-3.89801
0
LINE
8
BLACK
6
CONTINUOUS
10
5.2419
20
-3.89801
11
5.24193
21
-3.89807
0
LINE
8
BLACK
6
CONTINUOUS
10
5.24193
20
-3.89807
11
5.24195
21
-3.89813
0
LINE
8
BLACK
6
CONTINUOUS
10
5.24195
20
-3.89813
11
5.24458
21
-3.90601
0
LINE
8
BLACK
6
CONTINUOUS
10
5.24458
20
-3.90601
11
5.24458
21
-3.90602
0
LINE
8
BLACK
6
CONTINUOUS
10
5.24458
20
-3.90602
11
5.24462
21
-3.90621
0
LINE
8
BLACK
6
CONTINUOUS
10
5.24462
20
-3.90621
11
5.24463
21
-3.9064
0
LINE
8
BLACK
6
CONTINUOUS
10
5.24463
20
-3.9064
11
5.24459
21
-3.90659
0
LINE
8
BLACK
6
CONTINUOUS
10
5.24459
20
-3.90659
11
5.24452
21
-3.90677
0
LINE
8
BLACK
6
CONTINUOUS
10
5.24452
20
-3.90677
11
5.24442
21
-3.90693
0
LINE
8
BLACK
6
CONTINUOUS
10
5.24442
20
-3.90693
11
5.24428
21
-3.90707
0
LINE
8
BLACK
6
CONTINUOUS
10
5.24428
20
-3.90707
11
5.24413
21
-3.90718
0
LINE
8
BLACK
6
CONTINUOUS
10
5.24413
20
-3.90718
11
5.24395
21
-3.90725
0
LINE
8
BLACK
6
CONTINUOUS
10
5.24395
20
-3.90725
11
5.24376
21
-3.9073
0
LINE
8
BLACK
6
CONTINUOUS
10
5.24376
20
-3.9073
11
5.24357
21
-3.9073
0
LINE
8
BLACK
6
CONTINUOUS
10
5.24357
20
-3.9073
11
5.24338
21
-3.90727
0
LINE
8
BLACK
6
CONTINUOUS
10
5.24338
20
-3.90727
11
5.2432
21
-3.9072
0
LINE
8
BLACK
6
CONTINUOUS
10
5.2432
20
-3.9072
11
5.24304
21
-3.90709
0
LINE
8
BLACK
6
CONTINUOUS
10
5.24304
20
-3.90709
11
5.2429
21
-3.90696
0
LINE
8
BLACK
6
CONTINUOUS
10
5.2429
20
-3.90696
11
5.24279
21
-3.9068
0
LINE
8
BLACK
6
CONTINUOUS
10
5.24279
20
-3.9068
11
5.24271
21
-3.90663
0
LINE
8
BLACK
6
CONTINUOUS
10
5.24271
20
-3.90663
11
5.24219
21
-3.90505
0
LINE
8
BLACK
6
CONTINUOUS
10
5.24219
20
-3.90505
11
5.23985
21
-3.90505
0
LINE
8
BLACK
6
CONTINUOUS
10
5.23985
20
-3.90505
11
5.23933
21
-3.90663
0
LINE
8
BLACK
6
CONTINUOUS
10
5.23933
20
-3.90663
11
5.23932
21
-3.90664
0
LINE
8
BLACK
6
CONTINUOUS
10
5.23932
20
-3.90664
11
5.23924
21
-3.90682
0
LINE
8
BLACK
6
CONTINUOUS
10
5.23924
20
-3.90682
11
5.23913
21
-3.90697
0
LINE
8
BLACK
6
CONTINUOUS
10
5.23913
20
-3.90697
11
5.23899
21
-3.9071
0
LINE
8
BLACK
6
CONTINUOUS
10
5.23899
20
-3.9071
11
5.23883
21
-3.9072
0
LINE
8
BLACK
6
CONTINUOUS
10
5.23883
20
-3.9072
11
5.23865
21
-3.90727
0
LINE
8
BLACK
6
CONTINUOUS
10
5.23865
20
-3.90727
11
5.23846
21
-3.9073
0
LINE
8
BLACK
6
CONTINUOUS
10
5.23846
20
-3.9073
11
5.23826
21
-3.90729
0
LINE
8
BLACK
6
CONTINUOUS
10
5.23826
20
-3.90729
11
5.23808
21
-3.90725
0
LINE
8
BLACK
6
CONTINUOUS
10
5.23808
20
-3.90725
11
5.2379
21
-3.90717
0
LINE
8
BLACK
6
CONTINUOUS
10
5.2379
20
-3.90717
11
5.23775
21
-3.90706
0
LINE
8
BLACK
6
CONTINUOUS
10
5.23775
20
-3.90706
11
5.23761
21
-3.90692
0
LINE
8
BLACK
6
CONTINUOUS
10
5.23761
20
-3.90692
11
5.23751
21
-3.90676
0
LINE
8
BLACK
6
CONTINUOUS
10
5.23751
20
-3.90676
11
5.23745
21
-3.90658
0
LINE
8
BLACK
6
CONTINUOUS
10
5.23745
20
-3.90658
11
5.23741
21
-3.90639
0
LINE
8
BLACK
6
CONTINUOUS
10
5.23741
20
-3.90639
11
5.23742
21
-3.90619
0
LINE
8
BLACK
6
CONTINUOUS
10
5.23742
20
-3.90619
11
5.23746
21
-3.90601
0
LINE
8
BLACK
6
CONTINUOUS
10
5.23746
20
-3.90601
11
5.24009
21
-3.89813
0
LINE
8
BLACK
6
CONTINUOUS
10
5.24009
20
-3.89813
11
5.24009
21
-3.89812
0
LINE
8
BLACK
6
CONTINUOUS
10
5.24009
20
-3.89812
11
5.24012
21
-3.89806
0
LINE
8
BLACK
6
CONTINUOUS
10
5.24012
20
-3.89806
11
5.24014
21
-3.89799
0
LINE
8
BLACK
6
CONTINUOUS
10
5.24014
20
-3.89799
11
5.24016
21
-3.89797
0
LINE
8
BLACK
6
CONTINUOUS
10
5.24016
20
-3.89797
11
5.24017
21
-3.89795
0
LINE
8
BLACK
6
CONTINUOUS
10
5.24017
20
-3.89795
11
5.24021
21
-3.89789
0
LINE
8
BLACK
6
CONTINUOUS
10
5.24021
20
-3.89789
11
5.24025
21
-3.89783
0
LINE
8
BLACK
6
CONTINUOUS
10
5.24025
20
-3.89783
11
5.24027
21
-3.89781
0
LINE
8
BLACK
6
CONTINUOUS
10
5.24027
20
-3.89781
11
5.24028
21
-3.89779
0
LINE
8
BLACK
6
CONTINUOUS
10
5.24028
20
-3.89779
11
5.24033
21
-3.89774
0
LINE
8
BLACK
6
CONTINUOUS
10
5.24033
20
-3.89774
11
5.24038
21
-3.89769
0
LINE
8
BLACK
6
CONTINUOUS
10
5.24038
20
-3.89769
11
5.2404
21
-3.89768
0
LINE
8
BLACK
6
CONTINUOUS
10
5.2404
20
-3.89768
11
5.24043
21
-3.89766
0
LINE
8
BLACK
6
CONTINUOUS
10
5.24043
20
-3.89766
11
5.24048
21
-3.89762
0
LINE
8
BLACK
6
CONTINUOUS
10
5.24048
20
-3.89762
11
5.24054
21
-3.89759
0
LINE
8
BLACK
6
CONTINUOUS
10
5.24054
20
-3.89759
11
5.24056
21
-3.89757
0
LINE
8
BLACK
6
CONTINUOUS
10
5.24056
20
-3.89757
11
5.24059
21
-3.89756
0
LINE
8
BLACK
6
CONTINUOUS
10
5.24059
20
-3.89756
11
5.24065
21
-3.89754
0
LINE
8
BLACK
6
CONTINUOUS
10
5.24065
20
-3.89754
11
5.24072
21
-3.89751
0
LINE
8
BLACK
6
CONTINUOUS
10
5.24072
20
-3.89751
11
5.24074
21
-3.8975
0
LINE
8
BLACK
6
CONTINUOUS
10
5.24074
20
-3.8975
11
5.24077
21
-3.89749
0
LINE
8
BLACK
6
CONTINUOUS
10
5.24077
20
-3.89749
11
5.24084
21
-3.89748
0
LINE
8
BLACK
6
CONTINUOUS
10
5.24084
20
-3.89748
11
5.2409
21
-3.89747
0
LINE
8
BLACK
6
CONTINUOUS
10
5.2409
20
-3.89747
11
5.24093
21
-3.89747
0
LINE
8
BLACK
6
CONTINUOUS
10
5.24093
20
-3.89747
11
5.24096
21
-3.89746
0
LINE
8
BLACK
6
CONTINUOUS
10
5.24096
20
-3.89746
11
5.24103
21
-3.89746
0
LINE
8
BLACK
6
CONTINUOUS
10
5.24051
20
-3.90308
11
5.24153
21
-3.90308
0
LINE
8
BLACK
6
CONTINUOUS
10
5.24153
20
-3.90308
11
5.24102
21
-3.90156
0
LINE
8
BLACK
6
CONTINUOUS
10
5.24102
20
-3.90156
11
5.24051
21
-3.90308
  0
ENDSEC
  0
EOF
